999
dxfrw 0.6.3
  0
SECTION
  2
HEADER
  9
$ACADVER
  1
AC1021
  9
$DWGCODEPAGE
  3
ANSI_1252
  9
$INSBASE
 10
0
 20
0
 30
0
  9
$EXTMIN
 10
0
 20
0
 30
0
  9
$EXTMAX
 10
600
 20
500
 30
0
  9
$LIMMIN
 10
0
 20
0
  9
$LIMMAX
 10
420
 20
297
  9
$ORTHOMODE
 70
    0
  9
$REGENMODE
 70
    1
  9
$FILLMODE
 70
    1
  9
$QTEXTMODE
 70
    0
  9
$MIRRTEXT
 70
    0
  9
$LTSCALE
 40
1
  9
$ATTMODE
 70
    0
  9
$TEXTSIZE
 40
2.5
  9
$TRACEWID
 40
15.68
  9
$TEXTSTYLE
  7
STANDARD
  9
$CLAYER
  8
0
  9
$CELTYPE
  6
BYLAYER
  9
$CECOLOR
 62
  256
  9
$CELTSCALE
 40
1
  9
$DISPSILH
 70
    0
  9
$DIMSCALE
 40
1
  9
$DIMASZ
 40
2.5
  9
$DIMEXO
 40
0.625
  9
$DIMDLI
 40
3.75
  9
$DIMRND
 40
0
  9
$DIMDLE
 40
0
  9
$DIMEXE
 40
1.25
  9
$DIMTP
 40
0
  9
$DIMTM
 40
0
  9
$DIMTXT
 40
2.5
  9
$DIMCEN
 40
2.5
  9
$DIMTSZ
 40
0
  9
$DIMTOL
 70
    0
  9
$DIMLIM
 70
    0
  9
$DIMTIH
 70
    0
  9
$DIMTOH
 70
    0
  9
$DIMSE1
 70
    0
  9
$DIMSE2
 70
    0
  9
$DIMTAD
 70
    1
  9
$DIMZIN
 70
    8
  9
$DIMBLK
  1

  9
$DIMASO
 70
    1
  9
$DIMSHO
 70
    1
  9
$DIMPOST
  1

  9
$DIMAPOST
  1

  9
$DIMALT
 70
    0
  9
$DIMALTD
 70
    3
  9
$DIMALTF
 40
0.03937
  9
$DIMLFAC
 40
1
  9
$DIMTOFL
 70
    1
  9
$DIMTVP
 40
0
  9
$DIMTIX
 70
    0
  9
$DIMSOXD
 70
    0
  9
$DIMSAH
 70
    0
  9
$DIMBLK1
  1

  9
$DIMBLK2
  1

  9
$DIMSTYLE
  2
STANDARD
  9
$DIMCLRD
 70
    0
  9
$DIMCLRE
 70
    0
  9
$DIMCLRT
 70
    0
  9
$DIMTFAC
 40
1
  9
$DIMGAP
 40
0.625
  9
$DIMJUST
 70
    0
  9
$DIMSD1
 70
    0
  9
$DIMSD2
 70
    0
  9
$DIMTOLJ
 70
    0
  9
$DIMTZIN
 70
    8
  9
$DIMALTZ
 70
    0
  9
$DIMALTTZ
 70
    0
  9
$DIMUPT
 70
    0
  9
$DIMDEC
 70
    2
  9
$DIMTDEC
 70
    2
  9
$DIMALTU
 70
    2
  9
$DIMALTTD
 70
    3
  9
$DIMTXSTY
  7
STANDARD
  9
$DIMAUNIT
 70
    0
  9
$DIMADEC
 70
    0
  9
$DIMALTRND
 40
0
  9
$DIMAZIN
 70
    0
  9
$DIMDSEP
 70
   44
  9
$DIMATFIT
 70
    3
  9
$DIMFRAC
 70
    0
  9
$DIMLDRBLK
  1
STANDARD
  9
$DIMLUNIT
 70
    2
  9
$DIMLWD
 70
   -2
  9
$DIMLWE
 70
   -2
  9
$DIMTMOVE
 70
    0
  9
$DIMFXL
 40
1
  9
$DIMFXLON
 70
    0
  9
$DIMJOGANG
 40
0.7854
  9
$DIMTFILL
 70
    0
  9
$DIMTFILLCLR
 70
    0
  9
$DIMARCSYM
 70
    0
  9
$DIMLTYPE
  6

  9
$DIMLTEX1
  6

  9
$DIMLTEX2
  6

  9
$LUNITS
 70
    2
  9
$LUPREC
 70
    4
  9
$SKETCHINC
 40
1
  9
$FILLETRAD
 40
0
  9
$AUNITS
 70
    0
  9
$AUPREC
 70
    2
  9
$MENU
  1
.
  9
$ELEVATION
 40
0
  9
$PELEVATION
 40
0
  9
$THICKNESS
 40
0
  9
$LIMCHECK
 70
    0
  9
$CHAMFERA
 40
0
  9
$CHAMFERB
 40
0
  9
$CHAMFERC
 40
0
  9
$CHAMFERD
 40
0
  9
$SKPOLY
 70
    0
  9
$USRTIMER
 70
    1
  9
$ANGBASE
 50
0
  9
$ANGDIR
 70
    0
  9
$PDMODE
 70
   34
  9
$PDSIZE
 40
0
  9
$PLINEWID
 40
0
  9
$SPLFRAME
 70
    0
  9
$SPLINETYPE
 70
    2
  9
$SPLINESEGS
 70
    8
  9
$HANDSEED
  5
20000
  9
$SURFTAB1
 70
    6
  9
$SURFTAB2
 70
    6
  9
$SURFTYPE
 70
    6
  9
$SURFU
 70
    6
  9
$SURFV
 70
    6
  9
$UCSBASE
  2

  9
$UCSNAME
  2

  9
$UCSORG
 10
0
 20
0
 30
0
  9
$UCSXDIR
 10
1
 20
0
 30
0
  9
$UCSYDIR
 10
0
 20
1
 30
0
  9
$UCSORTHOREF
  2

  9
$UCSORTHOVIEW
 70
    0
  9
$UCSORGTOP
 10
0
 20
0
 30
0
  9
$UCSORGBOTTOM
 10
0
 20
0
 30
0
  9
$UCSORGLEFT
 10
0
 20
0
 30
0
  9
$UCSORGRIGHT
 10
0
 20
0
 30
0
  9
$UCSORGFRONT
 10
0
 20
0
 30
0
  9
$UCSORGBACK
 10
0
 20
0
 30
0
  9
$PUCSBASE
  2

  9
$PUCSNAME
  2

  9
$PUCSORG
 10
0
 20
0
 30
0
  9
$PUCSXDIR
 10
1
 20
0
 30
0
  9
$PUCSYDIR
 10
0
 20
1
 30
0
  9
$PUCSORTHOREF
  2

  9
$PUCSORTHOVIEW
 70
    0
  9
$PUCSORGTOP
 10
0
 20
0
 30
0
  9
$PUCSORGBOTTOM
 10
0
 20
0
 30
0
  9
$PUCSORGLEFT
 10
0
 20
0
 30
0
  9
$PUCSORGRIGHT
 10
0
 20
0
 30
0
  9
$PUCSORGFRONT
 10
0
 20
0
 30
0
  9
$PUCSORGBACK
 10
0
 20
0
 30
0
  9
$USERI1
 70
    0
  9
$USERI2
 70
    0
  9
$USERI3
 70
    0
  9
$USERI4
 70
    0
  9
$USERI5
 70
    0
  9
$USERR1
 40
0
  9
$USERR2
 40
0
  9
$USERR3
 40
0
  9
$USERR4
 40
0
  9
$USERR5
 40
0
  9
$WORLDVIEW
 70
    1
  9
$SHADEDGE
 70
    3
  9
$SHADEDIF
 70
   70
  9
$TILEMODE
 70
    1
  9
$MAXACTVP
 70
   64
  9
$PINSBASE
 10
0
 20
0
 30
0
  9
$PLIMCHECK
 70
    0
  9
$PEXTMIN
 10
0
 20
0
 30
0
  9
$PEXTMAX
 10
0
 20
0
 30
0
  9
$GRIDMODE
 70
    1
  9
$SNAPSTYLE
 70
    0
  9
$PLIMMIN
 10
0
 20
0
  9
$PLIMMAX
 10
210
 20
297
  9
$UNITMODE
 70
    0
  9
$VISRETAIN
 70
    1
  9
$PLINEGEN
 70
    0
  9
$PSLTSCALE
 70
    1
  9
$TREEDEPTH
 70
 3020
  9
$CMLSTYLE
  2
Standard
  9
$CMLJUST
 70
    0
  9
$CMLSCALE
 40
20
  9
$PROXYGRAPHICS
 70
    1
  9
$MEASUREMENT
 70
    1
  9
$CELWEIGHT
370
   -1
  9
$ENDCAPS
280
    0
  9
$JOINSTYLE
280
    0
  9
$LWDISPLAY
290
    0
  9
$INSUNITS
 70
    4
  9
$HYPERLINKBASE
  1

  9
$STYLESHEET
  1

  9
$XEDIT
290
    1
  9
$CEPSNTYPE
380
    0
  9
$PSTYLEMODE
290
    1
  9
$EXTNAMES
290
    1
  9
$PSVPSCALE
 40
1
  9
$OLESTARTUP
290
    0
  9
$SORTENTS
280
  127
  9
$INDEXCTL
280
    0
  9
$HIDETEXT
280
    1
  9
$XCLIPFRAME
290
    0
  9
$HALOGAP
280
    0
  9
$OBSCOLOR
 70
  257
  9
$OBSLTYPE
280
    0
  9
$INTERSECTIONDISPLAY
280
    0
  9
$INTERSECTIONCOLOR
 70
  257
  9
$DIMASSOC
280
    1
  9
$PROJECTNAME
  1

  9
$CAMERADISPLAY
290
    0
  9
$LENSLENGTH
 40
50
  9
$CAMERAHEIGHT
 40
0
  9
$STEPSPERSEC
 40
2
  9
$STEPSIZE
 40
50
  9
$3DDWFPREC
 40
2
  9
$PSOLWIDTH
 40
5
  9
$PSOLHEIGHT
 40
80
  9
$LOFTANG1
 40
1.570796326794897
  9
$LOFTANG2
 40
1.570796326794897
  9
$LOFTMAG1
 40
0
  9
$LOFTMAG2
 40
0
  9
$LOFTPARAM
 70
    7
  9
$LOFTNORMALS
280
    1
  9
$LATITUDE
 40
1
  9
$LONGITUDE
 40
1
  9
$NORTHDIRECTION
 40
0
  9
$TIMEZONE
 70
-8000
  9
$LIGHTGLYPHDISPLAY
280
    1
  9
$TILEMODELIGHTSYNCH
280
    1
  9
$SOLIDHIST
280
    1
  9
$SHOWHIST
280
    1
  9
$DWFFRAME
280
    2
  9
$DGNFRAME
280
    0
  9
$REALWORLDSCALE
290
    1
  9
$INTERFERECOLOR
 62
    1
  9
$CSHADOW
280
    0
  9
$SHADOWPLANELOCATION
 40
0
  0
ENDSEC
  0
SECTION
  2
CLASSES
  0
ENDSEC
  0
SECTION
  2
TABLES
  0
TABLE
  2
VPORT
  5
8
330
0
100
AcDbSymbolTable
 70
    1
  0
VPORT
  5
31
330
2
100
AcDbSymbolTableRecord
100
AcDbViewportTableRecord
  2
*ACTIVE
 70
    0
 10
0
 20
0
 11
1
 21
1
 12
406.7425957403089
 22
267.4376208901945
 13
0
 23
0
 14
10
 24
10
 15
10
 25
10
 16
0
 26
0
 36
1
 17
0
 27
0
 37
0
 40
564.9008754573561
 41
1.69221260815822
 42
50
 43
0
 44
0
 50
0
 51
0
 71
    0
 72
  100
 73
    1
 74
    3
 75
    0
 76
    1
 77
    0
 78
    0
281
    0
 65
    1
110
0
120
0
130
0
111
1
121
0
131
0
112
0
122
1
132
0
 79
    0
146
0
348
10020
 60
    7
 61
    5
292
1
282
    1
141
0
142
0
 63
  250
421
3358443
  0
ENDTAB
  0
TABLE
  2
LTYPE
  5
5
330
0
100
AcDbSymbolTable
 70
    4
  0
LTYPE
  5
14
330
5
100
AcDbSymbolTableRecord
100
AcDbLinetypeTableRecord
  2
ByBlock
 70
    0
  3

 72
   65
 73
    0
 40
0
  0
LTYPE
  5
15
330
5
100
AcDbSymbolTableRecord
100
AcDbLinetypeTableRecord
  2
ByLayer
 70
    0
  3

 72
   65
 73
    0
 40
0
  0
LTYPE
  5
16
330
5
100
AcDbSymbolTableRecord
100
AcDbLinetypeTableRecord
  2
Continuous
 70
    0
  3
Solid line
 72
   65
 73
    0
 40
0
  0
LTYPE
  5
32
330
5
100
AcDbSymbolTableRecord
100
AcDbLinetypeTableRecord
  2
DOT
 70
    0
  3
Dot . . . . . . . . . . . . . . . . . . . . . .
 72
   65
 73
    2
 40
6.35
 49
0
 74
    0
 49
-6.35
 74
    0
  0
LTYPE
  5
33
330
5
100
AcDbSymbolTableRecord
100
AcDbLinetypeTableRecord
  2
DOTTINY
 70
    0
  3
Dot (.15x) .....................................
 72
   65
 73
    2
 40
0.9525
 49
0
 74
    0
 49
-0.9525
 74
    0
  0
LTYPE
  5
34
330
5
100
AcDbSymbolTableRecord
100
AcDbLinetypeTableRecord
  2
DOT2
 70
    0
  3
Dot (.5x) .....................................
 72
   65
 73
    2
 40
3.175
 49
0
 74
    0
 49
-3.175
 74
    0
  0
LTYPE
  5
35
330
5
100
AcDbSymbolTableRecord
100
AcDbLinetypeTableRecord
  2
DOTX2
 70
    0
  3
Dot (2x) .  .  .  .  .  .  .  .  .  .  .  .  .
 72
   65
 73
    2
 40
12.7
 49
0
 74
    0
 49
-12.7
 74
    0
  0
LTYPE
  5
36
330
5
100
AcDbSymbolTableRecord
100
AcDbLinetypeTableRecord
  2
DASHED
 70
    0
  3
Dashed _ _ _ _ _ _ _ _ _ _ _ _ _ _ _ _ _
 72
   65
 73
    2
 40
19.05
 49
12.7
 74
    0
 49
-6.35
 74
    0
  0
LTYPE
  5
37
330
5
100
AcDbSymbolTableRecord
100
AcDbLinetypeTableRecord
  2
DASHEDTINY
 70
    0
  3
Dashed (.15x) _ _ _ _ _ _ _ _ _ _ _ _ _ _ _ _ _
 72
   65
 73
    2
 40
2.8575
 49
1.905
 74
    0
 49
-0.9525
 74
    0
  0
LTYPE
  5
38
330
5
100
AcDbSymbolTableRecord
100
AcDbLinetypeTableRecord
  2
DASHED2
 70
    0
  3
Dashed (.5x) _ _ _ _ _ _ _ _ _ _ _ _ _ _ _ _ _
 72
   65
 73
    2
 40
9.524999999999999
 49
6.35
 74
    0
 49
-3.175
 74
    0
  0
LTYPE
  5
39
330
5
100
AcDbSymbolTableRecord
100
AcDbLinetypeTableRecord
  2
DASHEDX2
 70
    0
  3
Dashed (2x) ____  ____  ____  ____  ____  ___
 72
   65
 73
    2
 40
38.09999999999999
 49
25.4
 74
    0
 49
-12.7
 74
    0
  0
LTYPE
  5
3A
330
5
100
AcDbSymbolTableRecord
100
AcDbLinetypeTableRecord
  2
DASHDOT
 70
    0
  3
Dash dot __ . __ . __ . __ . __ . __ . __ . __
 72
   65
 73
    4
 40
25.4
 49
12.7
 74
    0
 49
-6.35
 74
    0
 49
0
 74
    0
 49
-6.35
 74
    0
  0
LTYPE
  5
3B
330
5
100
AcDbSymbolTableRecord
100
AcDbLinetypeTableRecord
  2
DASHDOTTINY
 70
    0
  3
Dash dot (.15x) _._._._._._._._._._._._._._._.
 72
   65
 73
    4
 40
3.81
 49
1.905
 74
    0
 49
-0.9525
 74
    0
 49
0
 74
    0
 49
-0.9525
 74
    0
  0
LTYPE
  5
3C
330
5
100
AcDbSymbolTableRecord
100
AcDbLinetypeTableRecord
  2
DASHDOT2
 70
    0
  3
Dash dot (.5x) _._._._._._._._._._._._._._._.
 72
   65
 73
    4
 40
12.7
 49
6.35
 74
    0
 49
-3.175
 74
    0
 49
0
 74
    0
 49
-3.175
 74
    0
  0
LTYPE
  5
3D
330
5
100
AcDbSymbolTableRecord
100
AcDbLinetypeTableRecord
  2
DASHDOTX2
 70
    0
  3
Dash dot (2x) ____  .  ____  .  ____  .  ___
 72
   65
 73
    4
 40
50.8
 49
25.4
 74
    0
 49
-12.7
 74
    0
 49
0
 74
    0
 49
-12.7
 74
    0
  0
LTYPE
  5
3E
330
5
100
AcDbSymbolTableRecord
100
AcDbLinetypeTableRecord
  2
DIVIDE
 70
    0
  3
Divide ____ . . ____ . . ____ . . ____ . . ____
 72
   65
 73
    6
 40
31.75
 49
12.7
 74
    0
 49
-6.35
 74
    0
 49
0
 74
    0
 49
-6.35
 74
    0
 49
0
 74
    0
 49
-6.35
 74
    0
  0
LTYPE
  5
3F
330
5
100
AcDbSymbolTableRecord
100
AcDbLinetypeTableRecord
  2
DIVIDETINY
 70
    0
  3
Divide (.15x) __..__..__..__..__..__..__..__.._
 72
   65
 73
    6
 40
4.7625
 49
1.905
 74
    0
 49
-0.9525
 74
    0
 49
0
 74
    0
 49
-0.9525
 74
    0
 49
0
 74
    0
 49
-0.9525
 74
    0
  0
LTYPE
  5
40
330
5
100
AcDbSymbolTableRecord
100
AcDbLinetypeTableRecord
  2
DIVIDE2
 70
    0
  3
Divide (.5x) __..__..__..__..__..__..__..__.._
 72
   65
 73
    6
 40
15.875
 49
6.35
 74
    0
 49
-3.175
 74
    0
 49
0
 74
    0
 49
-3.175
 74
    0
 49
0
 74
    0
 49
-3.175
 74
    0
  0
LTYPE
  5
41
330
5
100
AcDbSymbolTableRecord
100
AcDbLinetypeTableRecord
  2
DIVIDEX2
 70
    0
  3
Divide (2x) ________  .  .  ________  .  .  _
 72
   65
 73
    6
 40
63.5
 49
25.4
 74
    0
 49
-12.7
 74
    0
 49
0
 74
    0
 49
-12.7
 74
    0
 49
0
 74
    0
 49
-12.7
 74
    0
  0
LTYPE
  5
42
330
5
100
AcDbSymbolTableRecord
100
AcDbLinetypeTableRecord
  2
BORDER
 70
    0
  3
Border __ __ . __ __ . __ __ . __ __ . __ __ .
 72
   65
 73
    6
 40
44.45
 49
12.7
 74
    0
 49
-6.35
 74
    0
 49
12.7
 74
    0
 49
-6.35
 74
    0
 49
0
 74
    0
 49
-6.35
 74
    0
  0
LTYPE
  5
43
330
5
100
AcDbSymbolTableRecord
100
AcDbLinetypeTableRecord
  2
BORDERTINY
 70
    0
  3
Border (.15x) __.__.__.__.__.__.__.__.__.__.__.
 72
   65
 73
    6
 40
6.6675
 49
1.905
 74
    0
 49
-0.9525
 74
    0
 49
1.905
 74
    0
 49
-0.9525
 74
    0
 49
0
 74
    0
 49
-0.9525
 74
    0
  0
LTYPE
  5
44
330
5
100
AcDbSymbolTableRecord
100
AcDbLinetypeTableRecord
  2
BORDER2
 70
    0
  3
Border (.5x) __.__.__.__.__.__.__.__.__.__.__.
 72
   65
 73
    6
 40
22.225
 49
6.35
 74
    0
 49
-3.175
 74
    0
 49
6.35
 74
    0
 49
-3.175
 74
    0
 49
0
 74
    0
 49
-3.175
 74
    0
  0
LTYPE
  5
45
330
5
100
AcDbSymbolTableRecord
100
AcDbLinetypeTableRecord
  2
BORDERX2
 70
    0
  3
Border (2x) ____  ____  .  ____  ____  .  ___
 72
   65
 73
    6
 40
88.89999999999999
 49
25.4
 74
    0
 49
-12.7
 74
    0
 49
25.4
 74
    0
 49
-12.7
 74
    0
 49
0
 74
    0
 49
-12.7
 74
    0
  0
LTYPE
  5
46
330
5
100
AcDbSymbolTableRecord
100
AcDbLinetypeTableRecord
  2
CENTER
 70
    0
  3
Center ____ _ ____ _ ____ _ ____ _ ____ _ ____
 72
   65
 73
    4
 40
50.8
 49
31.75
 74
    0
 49
-6.35
 74
    0
 49
6.35
 74
    0
 49
-6.35
 74
    0
  0
LTYPE
  5
47
330
5
100
AcDbSymbolTableRecord
100
AcDbLinetypeTableRecord
  2
CENTERTINY
 70
    0
  3
Center (.15x) ___ _ ___ _ ___ _ ___ _ ___ _ ___
 72
   65
 73
    4
 40
7.62
 49
4.7625
 74
    0
 49
-0.9525
 74
    0
 49
0.9525
 74
    0
 49
-0.9525
 74
    0
  0
LTYPE
  5
48
330
5
100
AcDbSymbolTableRecord
100
AcDbLinetypeTableRecord
  2
CENTER2
 70
    0
  3
Center (.5x) ___ _ ___ _ ___ _ ___ _ ___ _ ___
 72
   65
 73
    4
 40
28.575
 49
19.05
 74
    0
 49
-3.175
 74
    0
 49
3.175
 74
    0
 49
-3.175
 74
    0
  0
LTYPE
  5
49
330
5
100
AcDbSymbolTableRecord
100
AcDbLinetypeTableRecord
  2
CENTERX2
 70
    0
  3
Center (2x) ________  __  ________  __  _____
 72
   65
 73
    4
 40
101.6
 49
63.5
 74
    0
 49
-12.7
 74
    0
 49
12.7
 74
    0
 49
-12.7
 74
    0
  0
ENDTAB
  0
TABLE
  2
LAYER
  5
2
330
0
100
AcDbSymbolTable
 70
    1
  0
LAYER
  5
10
330
2
100
AcDbSymbolTableRecord
100
AcDbLayerTableRecord
  2
0
 70
    0
 62
    7
  6
CONTINUOUS
370
    0
390
F
  0
LAYER
  5
4A
330
2
100
AcDbSymbolTableRecord
100
AcDbLayerTableRecord
  2
Comentários
 70
    0
 62
    1
  6
DOTTINY
370
   13
390
F
  0
ENDTAB
  0
TABLE
  2
STYLE
  5
3
330
0
100
AcDbSymbolTable
 70
    3
  0
STYLE
  5
4B
330
2
100
AcDbSymbolTableRecord
100
AcDbTextStyleTableRecord
  2
azomix
 70
    0
 40
0
 41
1
 50
0
 71
    0
 42
1
  3
azomix
  4

  0
STYLE
  5
4C
330
2
100
AcDbSymbolTableRecord
100
AcDbTextStyleTableRecord
  2
Standard
 70
    0
 40
0
 41
1
 50
0
 71
    0
 42
1
  3
txt
  4

  0
ENDTAB
  0
TABLE
  2
VIEW
  5
6
330
0
100
AcDbSymbolTable
 70
    0
  0
ENDTAB
  0
TABLE
  2
UCS
  5
7
330
0
100
AcDbSymbolTable
 70
    0
  0
ENDTAB
  0
TABLE
  2
APPID
  5
9
330
0
100
AcDbSymbolTable
 70
    1
  0
APPID
  5
12
330
9
100
AcDbSymbolTableRecord
100
AcDbRegAppTableRecord
  2
ACAD
 70
    0
  0
APPID
  5
4D
330
9
100
AcDbSymbolTableRecord
100
AcDbRegAppTableRecord
  2
LibreCad
 70
    0
  0
ENDTAB
  0
TABLE
  2
DIMSTYLE
  5
A
330
0
100
AcDbSymbolTable
 70
    1
100
AcDbDimStyleTable
 71
    1
  0
DIMSTYLE
105
4E
330
A
100
AcDbSymbolTableRecord
100
AcDbDimStyleTableRecord
  2
Standard
 70
    0
 40
1
 41
2.5
 42
0.625
 43
0.38
 44
1.25
 45
0
 46
0
 47
0
 48
0
 49
1
140
2.5
141
0.09
142
0
143
25.4
144
1
145
0
146
1
147
0.625
148
0
 71
    0
 72
    0
 73
    0
 74
    1
 75
    0
 76
    0
 77
    0
 78
    8
 79
    0
170
    0
171
    2
172
    0
173
    0
174
    0
175
    0
176
    0
177
    0
178
    0
179
    0
271
    2
272
    4
273
    2
274
    2
275
    0
276
    0
277
    2
278
   44
279
    0
280
    0
281
    0
282
    0
283
    1
284
    0
285
    0
286
    0
288
    0
289
    3
340
STANDARD
341

371
   -2
372
   -2
  0
ENDTAB
  0
TABLE
  2
BLOCK_RECORD
  5
1
330
0
100
AcDbSymbolTable
 70
    2
  0
BLOCK_RECORD
  5
1F
330
1
100
AcDbSymbolTableRecord
100
AcDbBlockTableRecord
  2
*Model_Space
 70
    0
280
    1
281
    0
  0
BLOCK_RECORD
  5
1E
330
1
100
AcDbSymbolTableRecord
100
AcDbBlockTableRecord
  2
*Paper_Space
 70
    0
280
    1
281
    0
  0
ENDTAB
  0
ENDSEC
  0
SECTION
  2
BLOCKS
  0
BLOCK
  5
20
330
1F
100
AcDbEntity
  8
0
100
AcDbBlockBegin
  2
*Model_Space
 70
    0
 10
0
 20
0
 30
0
  3
*Model_Space
  1

  0
ENDBLK
  5
21
330
1F
100
AcDbEntity
  8
0
100
AcDbBlockEnd
  0
BLOCK
  5
1C
330
1B
100
AcDbEntity
  8
0
100
AcDbBlockBegin
  2
*Paper_Space
 70
    0
 10
0
 20
0
 30
0
  3
*Paper_Space
  1

  0
ENDBLK
  5
1D
330
1F
100
AcDbEntity
  8
0
100
AcDbBlockEnd
  0
ENDSEC
  0
SECTION
  2
ENTITIES
  0
LWPOLYLINE
  5
4F
100
AcDbEntity
  8
Comentários
  6
ByLayer
 62
  256
370
   -1
100
AcDbPolyline
 90
    5
 70
    0
 43
0
 10
3
 20
3
 10
3
 20
63
 10
63
 20
63
 10
63
 20
3
 10
3
 20
3
  0
LWPOLYLINE
  5
50
100
AcDbEntity
  8
Comentários
  6
ByLayer
 62
  256
370
   -1
100
AcDbPolyline
 90
    3
 70
    0
 43
0
 10
3
 20
3
 10
0
 20
3
 10
0
 20
13
  0
LWPOLYLINE
  5
51
100
AcDbEntity
  8
0
  6
ByLayer
 62
  256
370
   -1
100
AcDbPolyline
 90
   49
 70
    0
 43
0
 10
3
 20
3
 10
0
 20
3
 10
0
 20
13
 10
3
 20
13
 10
3
 20
23
 10
0
 20
23
 10
0
 20
33
 10
3
 20
33
 10
3
 20
43
 10
0
 20
43
 10
0
 20
53
 10
3
 20
53
 10
3
 20
63
 10
3
 20
66
 10
13
 20
66
 10
13
 20
63
 10
23
 20
63
 10
23
 20
66
 10
33
 20
66
 10
33
 20
63
 10
43
 20
63
 10
43
 20
66
 10
53
 20
66
 10
53
 20
63
 10
63
 20
63
 10
66
 20
63
 10
66
 20
53
 10
63
 20
53
 10
63
 20
43
 10
66
 20
43
 10
66
 20
33
 10
63
 20
33
 10
63
 20
23
 10
66
 20
23
 10
66
 20
13
 10
63
 20
13
 10
63
 20
3
 10
63
 20
0
 10
53
 20
0
 10
53
 20
3
 10
43
 20
3
 10
43
 20
0
 10
33
 20
0
 10
33
 20
3
 10
23
 20
3
 10
23
 20
0
 10
13
 20
0
 10
13
 20
3
 10
3
 20
3
  0
LWPOLYLINE
  5
52
100
AcDbEntity
  8
0
  6
ByLayer
 62
  256
370
   -1
100
AcDbPolyline
 90
   49
 70
    0
 43
0
 10
66
 20
3
 10
63
 20
3
 10
63
 20
13
 10
66
 20
13
 10
66
 20
23
 10
63
 20
23
 10
63
 20
33
 10
66
 20
33
 10
66
 20
43
 10
63
 20
43
 10
63
 20
53
 10
66
 20
53
 10
66
 20
63
 10
66
 20
66
 10
76
 20
66
 10
76
 20
63
 10
86
 20
63
 10
86
 20
66
 10
96
 20
66
 10
96
 20
63
 10
106
 20
63
 10
106
 20
66
 10
116
 20
66
 10
116
 20
63
 10
126
 20
63
 10
129
 20
63
 10
129
 20
53
 10
126
 20
53
 10
126
 20
43
 10
129
 20
43
 10
129
 20
33
 10
126
 20
33
 10
126
 20
23
 10
129
 20
23
 10
129
 20
13
 10
126
 20
13
 10
126
 20
3
 10
126
 20
0
 10
116
 20
0
 10
116
 20
3
 10
106
 20
3
 10
106
 20
0
 10
96
 20
0
 10
96
 20
3
 10
86
 20
3
 10
86
 20
0
 10
76
 20
0
 10
76
 20
3
 10
66
 20
3
  0
LWPOLYLINE
  5
53
100
AcDbEntity
  8
0
  6
ByLayer
 62
  256
370
   -1
100
AcDbPolyline
 90
   49
 70
    0
 43
0
 10
129
 20
3
 10
126
 20
3
 10
126
 20
13
 10
129
 20
13
 10
129
 20
23
 10
126
 20
23
 10
126
 20
33
 10
129
 20
33
 10
129
 20
43
 10
126
 20
43
 10
126
 20
53
 10
129
 20
53
 10
129
 20
63
 10
129
 20
66
 10
139
 20
66
 10
139
 20
63
 10
149
 20
63
 10
149
 20
66
 10
159
 20
66
 10
159
 20
63
 10
169
 20
63
 10
169
 20
66
 10
179
 20
66
 10
179
 20
63
 10
189
 20
63
 10
192
 20
63
 10
192
 20
53
 10
189
 20
53
 10
189
 20
43
 10
192
 20
43
 10
192
 20
33
 10
189
 20
33
 10
189
 20
23
 10
192
 20
23
 10
192
 20
13
 10
189
 20
13
 10
189
 20
3
 10
189
 20
0
 10
179
 20
0
 10
179
 20
3
 10
169
 20
3
 10
169
 20
0
 10
159
 20
0
 10
159
 20
3
 10
149
 20
3
 10
149
 20
0
 10
139
 20
0
 10
139
 20
3
 10
129
 20
3
  0
LWPOLYLINE
  5
54
100
AcDbEntity
  8
0
  6
ByLayer
 62
  256
370
   -1
100
AcDbPolyline
 90
   49
 70
    0
 43
0
 10
3
 20
66
 10
0
 20
66
 10
0
 20
76
 10
3
 20
76
 10
3
 20
86
 10
0
 20
86
 10
0
 20
96
 10
3
 20
96
 10
3
 20
106
 10
0
 20
106
 10
0
 20
116
 10
3
 20
116
 10
3
 20
126
 10
3
 20
129
 10
13
 20
129
 10
13
 20
126
 10
23
 20
126
 10
23
 20
129
 10
33
 20
129
 10
33
 20
126
 10
43
 20
126
 10
43
 20
129
 10
53
 20
129
 10
53
 20
126
 10
63
 20
126
 10
66
 20
126
 10
66
 20
116
 10
63
 20
116
 10
63
 20
106
 10
66
 20
106
 10
66
 20
96
 10
63
 20
96
 10
63
 20
86
 10
66
 20
86
 10
66
 20
76
 10
63
 20
76
 10
63
 20
66
 10
63
 20
63
 10
53
 20
63
 10
53
 20
66
 10
43
 20
66
 10
43
 20
63
 10
33
 20
63
 10
33
 20
66
 10
23
 20
66
 10
23
 20
63
 10
13
 20
63
 10
13
 20
66
 10
3
 20
66
  0
LWPOLYLINE
  5
55
100
AcDbEntity
  8
0
  6
ByLayer
 62
  256
370
   -1
100
AcDbPolyline
 90
   49
 70
    0
 43
0
 10
66
 20
66
 10
63
 20
66
 10
63
 20
76
 10
66
 20
76
 10
66
 20
86
 10
63
 20
86
 10
63
 20
96
 10
66
 20
96
 10
66
 20
106
 10
63
 20
106
 10
63
 20
116
 10
66
 20
116
 10
66
 20
126
 10
66
 20
129
 10
76
 20
129
 10
76
 20
126
 10
86
 20
126
 10
86
 20
129
 10
96
 20
129
 10
96
 20
126
 10
106
 20
126
 10
106
 20
129
 10
116
 20
129
 10
116
 20
126
 10
126
 20
126
 10
129
 20
126
 10
129
 20
116
 10
126
 20
116
 10
126
 20
106
 10
129
 20
106
 10
129
 20
96
 10
126
 20
96
 10
126
 20
86
 10
129
 20
86
 10
129
 20
76
 10
126
 20
76
 10
126
 20
66
 10
126
 20
63
 10
116
 20
63
 10
116
 20
66
 10
106
 20
66
 10
106
 20
63
 10
96
 20
63
 10
96
 20
66
 10
86
 20
66
 10
86
 20
63
 10
76
 20
63
 10
76
 20
66
 10
66
 20
66
  0
LWPOLYLINE
  5
56
100
AcDbEntity
  8
0
  6
ByLayer
 62
  256
370
   -1
100
AcDbPolyline
 90
   49
 70
    0
 43
0
 10
129
 20
66
 10
126
 20
66
 10
126
 20
76
 10
129
 20
76
 10
129
 20
86
 10
126
 20
86
 10
126
 20
96
 10
129
 20
96
 10
129
 20
106
 10
126
 20
106
 10
126
 20
116
 10
129
 20
116
 10
129
 20
126
 10
129
 20
129
 10
139
 20
129
 10
139
 20
126
 10
149
 20
126
 10
149
 20
129
 10
159
 20
129
 10
159
 20
126
 10
169
 20
126
 10
169
 20
129
 10
179
 20
129
 10
179
 20
126
 10
189
 20
126
 10
192
 20
126
 10
192
 20
116
 10
189
 20
116
 10
189
 20
106
 10
192
 20
106
 10
192
 20
96
 10
189
 20
96
 10
189
 20
86
 10
192
 20
86
 10
192
 20
76
 10
189
 20
76
 10
189
 20
66
 10
189
 20
63
 10
179
 20
63
 10
179
 20
66
 10
169
 20
66
 10
169
 20
63
 10
159
 20
63
 10
159
 20
66
 10
149
 20
66
 10
149
 20
63
 10
139
 20
63
 10
139
 20
66
 10
129
 20
66
  0
LWPOLYLINE
  5
57
100
AcDbEntity
  8
0
  6
ByLayer
 62
  256
370
   -1
100
AcDbPolyline
 90
    5
 70
    0
 43
0
 10
28
 20
31
 10
38
 20
31
 10
38
 20
34
 10
28
 20
34
 10
28
 20
31
  0
LWPOLYLINE
  5
58
100
AcDbEntity
  8
0
  6
ByLayer
 62
  256
370
   -1
100
AcDbPolyline
 90
    5
 70
    0
 43
0
 10
90
 20
29
 10
90
 20
37.40000000000001
 10
102.6
 20
37.40000000000001
 10
102.6
 20
29
 10
90
 20
29
  0
LWPOLYLINE
  5
59
100
AcDbEntity
  8
0
  6
ByLayer
 62
  256
370
   -1
100
AcDbPolyline
 90
    5
 70
    0
 43
0
 10
154
 20
31
 10
164
 20
31
 10
164
 20
34
 10
154
 20
34
 10
154
 20
31
  0
CIRCLE
  5
5A
100
AcDbEntity
  8
0
  6
ByLayer
 62
  256
370
   -1
100
AcDbCircle
 10
83
 20
96
 40
9
  0
CIRCLE
  5
5B
100
AcDbEntity
  8
0
  6
ByLayer
 62
  256
370
   -1
100
AcDbCircle
 10
109
 20
96
 40
9
  0
LWPOLYLINE
  5
5C
100
AcDbEntity
  8
Comentários
  6
ByLayer
 62
  256
370
   -1
100
AcDbPolyline
 90
    5
 70
    0
 43
0
 10
192
 20
3
 10
192
 20
63
 10
252
 20
63
 10
252
 20
3
 10
192
 20
3
  0
LWPOLYLINE
  5
5D
100
AcDbEntity
  8
Comentários
  6
ByLayer
 62
  256
370
   -1
100
AcDbPolyline
 90
    3
 70
    0
 43
0
 10
192
 20
3
 10
189
 20
3
 10
189
 20
13
  0
LWPOLYLINE
  5
5E
100
AcDbEntity
  8
0
  6
ByLayer
 62
  256
370
   -1
100
AcDbPolyline
 90
   49
 70
    0
 43
0
 10
192
 20
3
 10
189
 20
3
 10
189
 20
13
 10
192
 20
13
 10
192
 20
23
 10
189
 20
23
 10
189
 20
33
 10
192
 20
33
 10
192
 20
43
 10
189
 20
43
 10
189
 20
53
 10
192
 20
53
 10
192
 20
63
 10
192
 20
66
 10
202
 20
66
 10
202
 20
63
 10
212
 20
63
 10
212
 20
66
 10
222
 20
66
 10
222
 20
63
 10
232
 20
63
 10
232
 20
66
 10
242
 20
66
 10
242
 20
63
 10
252
 20
63
 10
255
 20
63
 10
255
 20
53
 10
252
 20
53
 10
252
 20
43
 10
255
 20
43
 10
255
 20
33
 10
252
 20
33
 10
252
 20
23
 10
255
 20
23
 10
255
 20
13
 10
252
 20
13
 10
252
 20
3
 10
252
 20
0
 10
242
 20
0
 10
242
 20
3
 10
232
 20
3
 10
232
 20
0
 10
222
 20
0
 10
222
 20
3
 10
212
 20
3
 10
212
 20
0
 10
202
 20
0
 10
202
 20
3
 10
192
 20
3
  0
LWPOLYLINE
  5
5F
100
AcDbEntity
  8
0
  6
ByLayer
 62
  256
370
   -1
100
AcDbPolyline
 90
   49
 70
    0
 43
0
 10
255
 20
3
 10
252
 20
3
 10
252
 20
13
 10
255
 20
13
 10
255
 20
23
 10
252
 20
23
 10
252
 20
33
 10
255
 20
33
 10
255
 20
43
 10
252
 20
43
 10
252
 20
53
 10
255
 20
53
 10
255
 20
63
 10
255
 20
66
 10
265
 20
66
 10
265
 20
63
 10
275
 20
63
 10
275
 20
66
 10
285
 20
66
 10
285
 20
63
 10
295
 20
63
 10
295
 20
66
 10
305
 20
66
 10
305
 20
63
 10
315
 20
63
 10
318
 20
63
 10
318
 20
53
 10
315
 20
53
 10
315
 20
43
 10
318
 20
43
 10
318
 20
33
 10
315
 20
33
 10
315
 20
23
 10
318
 20
23
 10
318
 20
13
 10
315
 20
13
 10
315
 20
3
 10
315
 20
0
 10
305
 20
0
 10
305
 20
3
 10
295
 20
3
 10
295
 20
0
 10
285
 20
0
 10
285
 20
3
 10
275
 20
3
 10
275
 20
0
 10
265
 20
0
 10
265
 20
3
 10
255
 20
3
  0
LWPOLYLINE
  5
60
100
AcDbEntity
  8
0
  6
ByLayer
 62
  256
370
   -1
100
AcDbPolyline
 90
   49
 70
    0
 43
0
 10
318
 20
3
 10
315
 20
3
 10
315
 20
13
 10
318
 20
13
 10
318
 20
23
 10
315
 20
23
 10
315
 20
33
 10
318
 20
33
 10
318
 20
43
 10
315
 20
43
 10
315
 20
53
 10
318
 20
53
 10
318
 20
63
 10
318
 20
66
 10
328
 20
66
 10
328
 20
63
 10
338
 20
63
 10
338
 20
66
 10
348
 20
66
 10
348
 20
63
 10
358
 20
63
 10
358
 20
66
 10
368
 20
66
 10
368
 20
63
 10
378
 20
63
 10
381
 20
63
 10
381
 20
53
 10
378
 20
53
 10
378
 20
43
 10
381
 20
43
 10
381
 20
33
 10
378
 20
33
 10
378
 20
23
 10
381
 20
23
 10
381
 20
13
 10
378
 20
13
 10
378
 20
3
 10
378
 20
0
 10
368
 20
0
 10
368
 20
3
 10
358
 20
3
 10
358
 20
0
 10
348
 20
0
 10
348
 20
3
 10
338
 20
3
 10
338
 20
0
 10
328
 20
0
 10
328
 20
3
 10
318
 20
3
  0
LWPOLYLINE
  5
61
100
AcDbEntity
  8
0
  6
ByLayer
 62
  256
370
   -1
100
AcDbPolyline
 90
   49
 70
    0
 43
0
 10
192
 20
66
 10
189
 20
66
 10
189
 20
76
 10
192
 20
76
 10
192
 20
86
 10
189
 20
86
 10
189
 20
96
 10
192
 20
96
 10
192
 20
106
 10
189
 20
106
 10
189
 20
116
 10
192
 20
116
 10
192
 20
126
 10
192
 20
129
 10
202
 20
129
 10
202
 20
126
 10
212
 20
126
 10
212
 20
129
 10
222
 20
129
 10
222
 20
126
 10
232
 20
126
 10
232
 20
129
 10
242
 20
129
 10
242
 20
126
 10
252
 20
126
 10
255
 20
126
 10
255
 20
116
 10
252
 20
116
 10
252
 20
106
 10
255
 20
106
 10
255
 20
96
 10
252
 20
96
 10
252
 20
86
 10
255
 20
86
 10
255
 20
76
 10
252
 20
76
 10
252
 20
66
 10
252
 20
63
 10
242
 20
63
 10
242
 20
66
 10
232
 20
66
 10
232
 20
63
 10
222
 20
63
 10
222
 20
66
 10
212
 20
66
 10
212
 20
63
 10
202
 20
63
 10
202
 20
66
 10
192
 20
66
  0
LWPOLYLINE
  5
62
100
AcDbEntity
  8
0
  6
ByLayer
 62
  256
370
   -1
100
AcDbPolyline
 90
   49
 70
    0
 43
0
 10
255
 20
66
 10
252
 20
66
 10
252
 20
76
 10
255
 20
76
 10
255
 20
86
 10
252
 20
86
 10
252
 20
96
 10
255
 20
96
 10
255
 20
106
 10
252
 20
106
 10
252
 20
116
 10
255
 20
116
 10
255
 20
126
 10
255
 20
129
 10
265
 20
129
 10
265
 20
126
 10
275
 20
126
 10
275
 20
129
 10
285
 20
129
 10
285
 20
126
 10
295
 20
126
 10
295
 20
129
 10
305
 20
129
 10
305
 20
126
 10
315
 20
126
 10
318
 20
126
 10
318
 20
116
 10
315
 20
116
 10
315
 20
106
 10
318
 20
106
 10
318
 20
96
 10
315
 20
96
 10
315
 20
86
 10
318
 20
86
 10
318
 20
76
 10
315
 20
76
 10
315
 20
66
 10
315
 20
63
 10
305
 20
63
 10
305
 20
66
 10
295
 20
66
 10
295
 20
63
 10
285
 20
63
 10
285
 20
66
 10
275
 20
66
 10
275
 20
63
 10
265
 20
63
 10
265
 20
66
 10
255
 20
66
  0
LWPOLYLINE
  5
63
100
AcDbEntity
  8
0
  6
ByLayer
 62
  256
370
   -1
100
AcDbPolyline
 90
   49
 70
    0
 43
0
 10
318
 20
66
 10
315
 20
66
 10
315
 20
76
 10
318
 20
76
 10
318
 20
86
 10
315
 20
86
 10
315
 20
96
 10
318
 20
96
 10
318
 20
106
 10
315
 20
106
 10
315
 20
116
 10
318
 20
116
 10
318
 20
126
 10
318
 20
129
 10
328
 20
129
 10
328
 20
126
 10
338
 20
126
 10
338
 20
129
 10
348
 20
129
 10
348
 20
126
 10
358
 20
126
 10
358
 20
129
 10
368
 20
129
 10
368
 20
126
 10
378
 20
126
 10
381
 20
126
 10
381
 20
116
 10
378
 20
116
 10
378
 20
106
 10
381
 20
106
 10
381
 20
96
 10
378
 20
96
 10
378
 20
86
 10
381
 20
86
 10
381
 20
76
 10
378
 20
76
 10
378
 20
66
 10
378
 20
63
 10
368
 20
63
 10
368
 20
66
 10
358
 20
66
 10
358
 20
63
 10
348
 20
63
 10
348
 20
66
 10
338
 20
66
 10
338
 20
63
 10
328
 20
63
 10
328
 20
66
 10
318
 20
66
  0
LWPOLYLINE
  5
64
100
AcDbEntity
  8
0
  6
ByLayer
 62
  256
370
   -1
100
AcDbPolyline
 90
    5
 70
    0
 43
0
 10
217
 20
31
 10
227
 20
31
 10
227
 20
34
 10
217
 20
34
 10
217
 20
31
  0
LWPOLYLINE
  5
65
100
AcDbEntity
  8
0
  6
ByLayer
 62
  256
370
   -1
100
AcDbPolyline
 90
    5
 70
    0
 43
0
 10
279
 20
29
 10
279
 20
37.40000000000001
 10
291.6
 20
37.40000000000001
 10
291.6
 20
29
 10
279
 20
29
  0
LWPOLYLINE
  5
66
100
AcDbEntity
  8
0
  6
ByLayer
 62
  256
370
   -1
100
AcDbPolyline
 90
    5
 70
    0
 43
0
 10
343
 20
31
 10
353
 20
31
 10
353
 20
34
 10
343
 20
34
 10
343
 20
31
  0
CIRCLE
  5
67
100
AcDbEntity
  8
0
  6
ByLayer
 62
  256
370
   -1
100
AcDbCircle
 10
272
 20
96
 40
9
  0
CIRCLE
  5
68
100
AcDbEntity
  8
0
  6
ByLayer
 62
  256
370
   -1
100
AcDbCircle
 10
298
 20
96
 40
9
  0
LWPOLYLINE
  5
69
100
AcDbEntity
  8
Comentários
  6
ByLayer
 62
  256
370
   -1
100
AcDbPolyline
 90
    5
 70
    0
 43
0
 10
381
 20
3
 10
381
 20
63
 10
441
 20
63
 10
441
 20
3
 10
381
 20
3
  0
LWPOLYLINE
  5
6A
100
AcDbEntity
  8
Comentários
  6
ByLayer
 62
  256
370
   -1
100
AcDbPolyline
 90
    3
 70
    0
 43
0
 10
381
 20
3
 10
378
 20
3
 10
378
 20
13
  0
LWPOLYLINE
  5
6B
100
AcDbEntity
  8
0
  6
ByLayer
 62
  256
370
   -1
100
AcDbPolyline
 90
   49
 70
    0
 43
0
 10
381
 20
3
 10
378
 20
3
 10
378
 20
13
 10
381
 20
13
 10
381
 20
23
 10
378
 20
23
 10
378
 20
33
 10
381
 20
33
 10
381
 20
43
 10
378
 20
43
 10
378
 20
53
 10
381
 20
53
 10
381
 20
63
 10
381
 20
66
 10
391
 20
66
 10
391
 20
63
 10
401
 20
63
 10
401
 20
66
 10
411
 20
66
 10
411
 20
63
 10
421
 20
63
 10
421
 20
66
 10
431
 20
66
 10
431
 20
63
 10
441
 20
63
 10
444
 20
63
 10
444
 20
53
 10
441
 20
53
 10
441
 20
43
 10
444
 20
43
 10
444
 20
33
 10
441
 20
33
 10
441
 20
23
 10
444
 20
23
 10
444
 20
13
 10
441
 20
13
 10
441
 20
3
 10
441
 20
0
 10
431
 20
0
 10
431
 20
3
 10
421
 20
3
 10
421
 20
0
 10
411
 20
0
 10
411
 20
3
 10
401
 20
3
 10
401
 20
0
 10
391
 20
0
 10
391
 20
3
 10
381
 20
3
  0
LWPOLYLINE
  5
6C
100
AcDbEntity
  8
0
  6
ByLayer
 62
  256
370
   -1
100
AcDbPolyline
 90
   49
 70
    0
 43
0
 10
444
 20
3
 10
441
 20
3
 10
441
 20
13
 10
444
 20
13
 10
444
 20
23
 10
441
 20
23
 10
441
 20
33
 10
444
 20
33
 10
444
 20
43
 10
441
 20
43
 10
441
 20
53
 10
444
 20
53
 10
444
 20
63
 10
444
 20
66
 10
454
 20
66
 10
454
 20
63
 10
464
 20
63
 10
464
 20
66
 10
474
 20
66
 10
474
 20
63
 10
484
 20
63
 10
484
 20
66
 10
494
 20
66
 10
494
 20
63
 10
504
 20
63
 10
507
 20
63
 10
507
 20
53
 10
504
 20
53
 10
504
 20
43
 10
507
 20
43
 10
507
 20
33
 10
504
 20
33
 10
504
 20
23
 10
507
 20
23
 10
507
 20
13
 10
504
 20
13
 10
504
 20
3
 10
504
 20
0
 10
494
 20
0
 10
494
 20
3
 10
484
 20
3
 10
484
 20
0
 10
474
 20
0
 10
474
 20
3
 10
464
 20
3
 10
464
 20
0
 10
454
 20
0
 10
454
 20
3
 10
444
 20
3
  0
LWPOLYLINE
  5
6D
100
AcDbEntity
  8
0
  6
ByLayer
 62
  256
370
   -1
100
AcDbPolyline
 90
   49
 70
    0
 43
0
 10
507
 20
3
 10
504
 20
3
 10
504
 20
13
 10
507
 20
13
 10
507
 20
23
 10
504
 20
23
 10
504
 20
33
 10
507
 20
33
 10
507
 20
43
 10
504
 20
43
 10
504
 20
53
 10
507
 20
53
 10
507
 20
63
 10
507
 20
66
 10
517
 20
66
 10
517
 20
63
 10
527
 20
63
 10
527
 20
66
 10
537
 20
66
 10
537
 20
63
 10
547
 20
63
 10
547
 20
66
 10
557
 20
66
 10
557
 20
63
 10
567
 20
63
 10
570
 20
63
 10
570
 20
53
 10
567
 20
53
 10
567
 20
43
 10
570
 20
43
 10
570
 20
33
 10
567
 20
33
 10
567
 20
23
 10
570
 20
23
 10
570
 20
13
 10
567
 20
13
 10
567
 20
3
 10
567
 20
0
 10
557
 20
0
 10
557
 20
3
 10
547
 20
3
 10
547
 20
0
 10
537
 20
0
 10
537
 20
3
 10
527
 20
3
 10
527
 20
0
 10
517
 20
0
 10
517
 20
3
 10
507
 20
3
  0
LWPOLYLINE
  5
6E
100
AcDbEntity
  8
0
  6
ByLayer
 62
  256
370
   -1
100
AcDbPolyline
 90
   49
 70
    0
 43
0
 10
381
 20
66
 10
378
 20
66
 10
378
 20
76
 10
381
 20
76
 10
381
 20
86
 10
378
 20
86
 10
378
 20
96
 10
381
 20
96
 10
381
 20
106
 10
378
 20
106
 10
378
 20
116
 10
381
 20
116
 10
381
 20
126
 10
381
 20
129
 10
391
 20
129
 10
391
 20
126
 10
401
 20
126
 10
401
 20
129
 10
411
 20
129
 10
411
 20
126
 10
421
 20
126
 10
421
 20
129
 10
431
 20
129
 10
431
 20
126
 10
441
 20
126
 10
444
 20
126
 10
444
 20
116
 10
441
 20
116
 10
441
 20
106
 10
444
 20
106
 10
444
 20
96
 10
441
 20
96
 10
441
 20
86
 10
444
 20
86
 10
444
 20
76
 10
441
 20
76
 10
441
 20
66
 10
441
 20
63
 10
431
 20
63
 10
431
 20
66
 10
421
 20
66
 10
421
 20
63
 10
411
 20
63
 10
411
 20
66
 10
401
 20
66
 10
401
 20
63
 10
391
 20
63
 10
391
 20
66
 10
381
 20
66
  0
LWPOLYLINE
  5
6F
100
AcDbEntity
  8
0
  6
ByLayer
 62
  256
370
   -1
100
AcDbPolyline
 90
   49
 70
    0
 43
0
 10
444
 20
66
 10
441
 20
66
 10
441
 20
76
 10
444
 20
76
 10
444
 20
86
 10
441
 20
86
 10
441
 20
96
 10
444
 20
96
 10
444
 20
106
 10
441
 20
106
 10
441
 20
116
 10
444
 20
116
 10
444
 20
126
 10
444
 20
129
 10
454
 20
129
 10
454
 20
126
 10
464
 20
126
 10
464
 20
129
 10
474
 20
129
 10
474
 20
126
 10
484
 20
126
 10
484
 20
129
 10
494
 20
129
 10
494
 20
126
 10
504
 20
126
 10
507
 20
126
 10
507
 20
116
 10
504
 20
116
 10
504
 20
106
 10
507
 20
106
 10
507
 20
96
 10
504
 20
96
 10
504
 20
86
 10
507
 20
86
 10
507
 20
76
 10
504
 20
76
 10
504
 20
66
 10
504
 20
63
 10
494
 20
63
 10
494
 20
66
 10
484
 20
66
 10
484
 20
63
 10
474
 20
63
 10
474
 20
66
 10
464
 20
66
 10
464
 20
63
 10
454
 20
63
 10
454
 20
66
 10
444
 20
66
  0
LWPOLYLINE
  5
70
100
AcDbEntity
  8
0
  6
ByLayer
 62
  256
370
   -1
100
AcDbPolyline
 90
   49
 70
    0
 43
0
 10
507
 20
66
 10
504
 20
66
 10
504
 20
76
 10
507
 20
76
 10
507
 20
86
 10
504
 20
86
 10
504
 20
96
 10
507
 20
96
 10
507
 20
106
 10
504
 20
106
 10
504
 20
116
 10
507
 20
116
 10
507
 20
126
 10
507
 20
129
 10
517
 20
129
 10
517
 20
126
 10
527
 20
126
 10
527
 20
129
 10
537
 20
129
 10
537
 20
126
 10
547
 20
126
 10
547
 20
129
 10
557
 20
129
 10
557
 20
126
 10
567
 20
126
 10
570
 20
126
 10
570
 20
116
 10
567
 20
116
 10
567
 20
106
 10
570
 20
106
 10
570
 20
96
 10
567
 20
96
 10
567
 20
86
 10
570
 20
86
 10
570
 20
76
 10
567
 20
76
 10
567
 20
66
 10
567
 20
63
 10
557
 20
63
 10
557
 20
66
 10
547
 20
66
 10
547
 20
63
 10
537
 20
63
 10
537
 20
66
 10
527
 20
66
 10
527
 20
63
 10
517
 20
63
 10
517
 20
66
 10
507
 20
66
  0
LWPOLYLINE
  5
71
100
AcDbEntity
  8
0
  6
ByLayer
 62
  256
370
   -1
100
AcDbPolyline
 90
    5
 70
    0
 43
0
 10
406
 20
31
 10
416
 20
31
 10
416
 20
34
 10
406
 20
34
 10
406
 20
31
  0
LWPOLYLINE
  5
72
100
AcDbEntity
  8
0
  6
ByLayer
 62
  256
370
   -1
100
AcDbPolyline
 90
    5
 70
    0
 43
0
 10
468
 20
29
 10
468
 20
37.40000000000001
 10
480.6
 20
37.40000000000001
 10
480.6
 20
29
 10
468
 20
29
  0
LWPOLYLINE
  5
73
100
AcDbEntity
  8
0
  6
ByLayer
 62
  256
370
   -1
100
AcDbPolyline
 90
    5
 70
    0
 43
0
 10
532
 20
31
 10
542
 20
31
 10
542
 20
34
 10
532
 20
34
 10
532
 20
31
  0
CIRCLE
  5
74
100
AcDbEntity
  8
0
  6
ByLayer
 62
  256
370
   -1
100
AcDbCircle
 10
461
 20
96
 40
9
  0
CIRCLE
  5
75
100
AcDbEntity
  8
0
  6
ByLayer
 62
  256
370
   -1
100
AcDbCircle
 10
487
 20
96
 40
9
  0
LWPOLYLINE
  5
76
100
AcDbEntity
  8
Comentários
  6
ByLayer
 62
  256
370
   -1
100
AcDbPolyline
 90
    5
 70
    0
 43
0
 10
3
 20
129
 10
3
 20
189
 10
63
 20
189
 10
63
 20
129
 10
3
 20
129
  0
LWPOLYLINE
  5
77
100
AcDbEntity
  8
Comentários
  6
ByLayer
 62
  256
370
   -1
100
AcDbPolyline
 90
    3
 70
    0
 43
0
 10
3
 20
129
 10
0
 20
129
 10
0
 20
139
  0
LWPOLYLINE
  5
78
100
AcDbEntity
  8
0
  6
ByLayer
 62
  256
370
   -1
100
AcDbPolyline
 90
   49
 70
    0
 43
0
 10
3
 20
129
 10
0
 20
129
 10
0
 20
139
 10
3
 20
139
 10
3
 20
149
 10
0
 20
149
 10
0
 20
159
 10
3
 20
159
 10
3
 20
169
 10
0
 20
169
 10
0
 20
179
 10
3
 20
179
 10
3
 20
189
 10
3
 20
192
 10
13
 20
192
 10
13
 20
189
 10
23
 20
189
 10
23
 20
192
 10
33
 20
192
 10
33
 20
189
 10
43
 20
189
 10
43
 20
192
 10
53
 20
192
 10
53
 20
189
 10
63
 20
189
 10
66
 20
189
 10
66
 20
179
 10
63
 20
179
 10
63
 20
169
 10
66
 20
169
 10
66
 20
159
 10
63
 20
159
 10
63
 20
149
 10
66
 20
149
 10
66
 20
139
 10
63
 20
139
 10
63
 20
129
 10
63
 20
126
 10
53
 20
126
 10
53
 20
129
 10
43
 20
129
 10
43
 20
126
 10
33
 20
126
 10
33
 20
129
 10
23
 20
129
 10
23
 20
126
 10
13
 20
126
 10
13
 20
129
 10
3
 20
129
  0
LWPOLYLINE
  5
79
100
AcDbEntity
  8
0
  6
ByLayer
 62
  256
370
   -1
100
AcDbPolyline
 90
   49
 70
    0
 43
0
 10
66
 20
129
 10
63
 20
129
 10
63
 20
139
 10
66
 20
139
 10
66
 20
149
 10
63
 20
149
 10
63
 20
159
 10
66
 20
159
 10
66
 20
169
 10
63
 20
169
 10
63
 20
179
 10
66
 20
179
 10
66
 20
189
 10
66
 20
192
 10
76
 20
192
 10
76
 20
189
 10
86
 20
189
 10
86
 20
192
 10
96
 20
192
 10
96
 20
189
 10
106
 20
189
 10
106
 20
192
 10
116
 20
192
 10
116
 20
189
 10
126
 20
189
 10
129
 20
189
 10
129
 20
179
 10
126
 20
179
 10
126
 20
169
 10
129
 20
169
 10
129
 20
159
 10
126
 20
159
 10
126
 20
149
 10
129
 20
149
 10
129
 20
139
 10
126
 20
139
 10
126
 20
129
 10
126
 20
126
 10
116
 20
126
 10
116
 20
129
 10
106
 20
129
 10
106
 20
126
 10
96
 20
126
 10
96
 20
129
 10
86
 20
129
 10
86
 20
126
 10
76
 20
126
 10
76
 20
129
 10
66
 20
129
  0
LWPOLYLINE
  5
7A
100
AcDbEntity
  8
0
  6
ByLayer
 62
  256
370
   -1
100
AcDbPolyline
 90
   49
 70
    0
 43
0
 10
129
 20
129
 10
126
 20
129
 10
126
 20
139
 10
129
 20
139
 10
129
 20
149
 10
126
 20
149
 10
126
 20
159
 10
129
 20
159
 10
129
 20
169
 10
126
 20
169
 10
126
 20
179
 10
129
 20
179
 10
129
 20
189
 10
129
 20
192
 10
139
 20
192
 10
139
 20
189
 10
149
 20
189
 10
149
 20
192
 10
159
 20
192
 10
159
 20
189
 10
169
 20
189
 10
169
 20
192
 10
179
 20
192
 10
179
 20
189
 10
189
 20
189
 10
192
 20
189
 10
192
 20
179
 10
189
 20
179
 10
189
 20
169
 10
192
 20
169
 10
192
 20
159
 10
189
 20
159
 10
189
 20
149
 10
192
 20
149
 10
192
 20
139
 10
189
 20
139
 10
189
 20
129
 10
189
 20
126
 10
179
 20
126
 10
179
 20
129
 10
169
 20
129
 10
169
 20
126
 10
159
 20
126
 10
159
 20
129
 10
149
 20
129
 10
149
 20
126
 10
139
 20
126
 10
139
 20
129
 10
129
 20
129
  0
LWPOLYLINE
  5
7B
100
AcDbEntity
  8
0
  6
ByLayer
 62
  256
370
   -1
100
AcDbPolyline
 90
   49
 70
    0
 43
0
 10
3
 20
192
 10
0
 20
192
 10
0
 20
202
 10
3
 20
202
 10
3
 20
212
 10
0
 20
212
 10
0
 20
222
 10
3
 20
222
 10
3
 20
232
 10
0
 20
232
 10
0
 20
242
 10
3
 20
242
 10
3
 20
252
 10
3
 20
255
 10
13
 20
255
 10
13
 20
252
 10
23
 20
252
 10
23
 20
255
 10
33
 20
255
 10
33
 20
252
 10
43
 20
252
 10
43
 20
255
 10
53
 20
255
 10
53
 20
252
 10
63
 20
252
 10
66
 20
252
 10
66
 20
242
 10
63
 20
242
 10
63
 20
232
 10
66
 20
232
 10
66
 20
222
 10
63
 20
222
 10
63
 20
212
 10
66
 20
212
 10
66
 20
202
 10
63
 20
202
 10
63
 20
192
 10
63
 20
189
 10
53
 20
189
 10
53
 20
192
 10
43
 20
192
 10
43
 20
189
 10
33
 20
189
 10
33
 20
192
 10
23
 20
192
 10
23
 20
189
 10
13
 20
189
 10
13
 20
192
 10
3
 20
192
  0
LWPOLYLINE
  5
7C
100
AcDbEntity
  8
0
  6
ByLayer
 62
  256
370
   -1
100
AcDbPolyline
 90
   49
 70
    0
 43
0
 10
66
 20
192
 10
63
 20
192
 10
63
 20
202
 10
66
 20
202
 10
66
 20
212
 10
63
 20
212
 10
63
 20
222
 10
66
 20
222
 10
66
 20
232
 10
63
 20
232
 10
63
 20
242
 10
66
 20
242
 10
66
 20
252
 10
66
 20
255
 10
76
 20
255
 10
76
 20
252
 10
86
 20
252
 10
86
 20
255
 10
96
 20
255
 10
96
 20
252
 10
106
 20
252
 10
106
 20
255
 10
116
 20
255
 10
116
 20
252
 10
126
 20
252
 10
129
 20
252
 10
129
 20
242
 10
126
 20
242
 10
126
 20
232
 10
129
 20
232
 10
129
 20
222
 10
126
 20
222
 10
126
 20
212
 10
129
 20
212
 10
129
 20
202
 10
126
 20
202
 10
126
 20
192
 10
126
 20
189
 10
116
 20
189
 10
116
 20
192
 10
106
 20
192
 10
106
 20
189
 10
96
 20
189
 10
96
 20
192
 10
86
 20
192
 10
86
 20
189
 10
76
 20
189
 10
76
 20
192
 10
66
 20
192
  0
LWPOLYLINE
  5
7D
100
AcDbEntity
  8
0
  6
ByLayer
 62
  256
370
   -1
100
AcDbPolyline
 90
   49
 70
    0
 43
0
 10
129
 20
192
 10
126
 20
192
 10
126
 20
202
 10
129
 20
202
 10
129
 20
212
 10
126
 20
212
 10
126
 20
222
 10
129
 20
222
 10
129
 20
232
 10
126
 20
232
 10
126
 20
242
 10
129
 20
242
 10
129
 20
252
 10
129
 20
255
 10
139
 20
255
 10
139
 20
252
 10
149
 20
252
 10
149
 20
255
 10
159
 20
255
 10
159
 20
252
 10
169
 20
252
 10
169
 20
255
 10
179
 20
255
 10
179
 20
252
 10
189
 20
252
 10
192
 20
252
 10
192
 20
242
 10
189
 20
242
 10
189
 20
232
 10
192
 20
232
 10
192
 20
222
 10
189
 20
222
 10
189
 20
212
 10
192
 20
212
 10
192
 20
202
 10
189
 20
202
 10
189
 20
192
 10
189
 20
189
 10
179
 20
189
 10
179
 20
192
 10
169
 20
192
 10
169
 20
189
 10
159
 20
189
 10
159
 20
192
 10
149
 20
192
 10
149
 20
189
 10
139
 20
189
 10
139
 20
192
 10
129
 20
192
  0
LWPOLYLINE
  5
7E
100
AcDbEntity
  8
0
  6
ByLayer
 62
  256
370
   -1
100
AcDbPolyline
 90
    5
 70
    0
 43
0
 10
28
 20
157
 10
38
 20
157
 10
38
 20
160
 10
28
 20
160
 10
28
 20
157
  0
LWPOLYLINE
  5
7F
100
AcDbEntity
  8
0
  6
ByLayer
 62
  256
370
   -1
100
AcDbPolyline
 90
    5
 70
    0
 43
0
 10
90
 20
155
 10
90
 20
163.4
 10
102.6
 20
163.4
 10
102.6
 20
155
 10
90
 20
155
  0
LWPOLYLINE
  5
80
100
AcDbEntity
  8
0
  6
ByLayer
 62
  256
370
   -1
100
AcDbPolyline
 90
    5
 70
    0
 43
0
 10
154
 20
157
 10
164
 20
157
 10
164
 20
160
 10
154
 20
160
 10
154
 20
157
  0
CIRCLE
  5
81
100
AcDbEntity
  8
0
  6
ByLayer
 62
  256
370
   -1
100
AcDbCircle
 10
83
 20
222
 40
9
  0
CIRCLE
  5
82
100
AcDbEntity
  8
0
  6
ByLayer
 62
  256
370
   -1
100
AcDbCircle
 10
109
 20
222
 40
9
  0
LWPOLYLINE
  5
83
100
AcDbEntity
  8
Comentários
  6
ByLayer
 62
  256
370
   -1
100
AcDbPolyline
 90
    5
 70
    0
 43
0
 10
192
 20
129
 10
192
 20
189
 10
252
 20
189
 10
252
 20
129
 10
192
 20
129
  0
LWPOLYLINE
  5
84
100
AcDbEntity
  8
Comentários
  6
ByLayer
 62
  256
370
   -1
100
AcDbPolyline
 90
    3
 70
    0
 43
0
 10
192
 20
129
 10
189
 20
129
 10
189
 20
139
  0
LWPOLYLINE
  5
85
100
AcDbEntity
  8
0
  6
ByLayer
 62
  256
370
   -1
100
AcDbPolyline
 90
   49
 70
    0
 43
0
 10
192
 20
129
 10
189
 20
129
 10
189
 20
139
 10
192
 20
139
 10
192
 20
149
 10
189
 20
149
 10
189
 20
159
 10
192
 20
159
 10
192
 20
169
 10
189
 20
169
 10
189
 20
179
 10
192
 20
179
 10
192
 20
189
 10
192
 20
192
 10
202
 20
192
 10
202
 20
189
 10
212
 20
189
 10
212
 20
192
 10
222
 20
192
 10
222
 20
189
 10
232
 20
189
 10
232
 20
192
 10
242
 20
192
 10
242
 20
189
 10
252
 20
189
 10
255
 20
189
 10
255
 20
179
 10
252
 20
179
 10
252
 20
169
 10
255
 20
169
 10
255
 20
159
 10
252
 20
159
 10
252
 20
149
 10
255
 20
149
 10
255
 20
139
 10
252
 20
139
 10
252
 20
129
 10
252
 20
126
 10
242
 20
126
 10
242
 20
129
 10
232
 20
129
 10
232
 20
126
 10
222
 20
126
 10
222
 20
129
 10
212
 20
129
 10
212
 20
126
 10
202
 20
126
 10
202
 20
129
 10
192
 20
129
  0
LWPOLYLINE
  5
86
100
AcDbEntity
  8
0
  6
ByLayer
 62
  256
370
   -1
100
AcDbPolyline
 90
   49
 70
    0
 43
0
 10
255
 20
129
 10
252
 20
129
 10
252
 20
139
 10
255
 20
139
 10
255
 20
149
 10
252
 20
149
 10
252
 20
159
 10
255
 20
159
 10
255
 20
169
 10
252
 20
169
 10
252
 20
179
 10
255
 20
179
 10
255
 20
189
 10
255
 20
192
 10
265
 20
192
 10
265
 20
189
 10
275
 20
189
 10
275
 20
192
 10
285
 20
192
 10
285
 20
189
 10
295
 20
189
 10
295
 20
192
 10
305
 20
192
 10
305
 20
189
 10
315
 20
189
 10
318
 20
189
 10
318
 20
179
 10
315
 20
179
 10
315
 20
169
 10
318
 20
169
 10
318
 20
159
 10
315
 20
159
 10
315
 20
149
 10
318
 20
149
 10
318
 20
139
 10
315
 20
139
 10
315
 20
129
 10
315
 20
126
 10
305
 20
126
 10
305
 20
129
 10
295
 20
129
 10
295
 20
126
 10
285
 20
126
 10
285
 20
129
 10
275
 20
129
 10
275
 20
126
 10
265
 20
126
 10
265
 20
129
 10
255
 20
129
  0
LWPOLYLINE
  5
87
100
AcDbEntity
  8
0
  6
ByLayer
 62
  256
370
   -1
100
AcDbPolyline
 90
   49
 70
    0
 43
0
 10
318
 20
129
 10
315
 20
129
 10
315
 20
139
 10
318
 20
139
 10
318
 20
149
 10
315
 20
149
 10
315
 20
159
 10
318
 20
159
 10
318
 20
169
 10
315
 20
169
 10
315
 20
179
 10
318
 20
179
 10
318
 20
189
 10
318
 20
192
 10
328
 20
192
 10
328
 20
189
 10
338
 20
189
 10
338
 20
192
 10
348
 20
192
 10
348
 20
189
 10
358
 20
189
 10
358
 20
192
 10
368
 20
192
 10
368
 20
189
 10
378
 20
189
 10
381
 20
189
 10
381
 20
179
 10
378
 20
179
 10
378
 20
169
 10
381
 20
169
 10
381
 20
159
 10
378
 20
159
 10
378
 20
149
 10
381
 20
149
 10
381
 20
139
 10
378
 20
139
 10
378
 20
129
 10
378
 20
126
 10
368
 20
126
 10
368
 20
129
 10
358
 20
129
 10
358
 20
126
 10
348
 20
126
 10
348
 20
129
 10
338
 20
129
 10
338
 20
126
 10
328
 20
126
 10
328
 20
129
 10
318
 20
129
  0
LWPOLYLINE
  5
88
100
AcDbEntity
  8
0
  6
ByLayer
 62
  256
370
   -1
100
AcDbPolyline
 90
   49
 70
    0
 43
0
 10
192
 20
192
 10
189
 20
192
 10
189
 20
202
 10
192
 20
202
 10
192
 20
212
 10
189
 20
212
 10
189
 20
222
 10
192
 20
222
 10
192
 20
232
 10
189
 20
232
 10
189
 20
242
 10
192
 20
242
 10
192
 20
252
 10
192
 20
255
 10
202
 20
255
 10
202
 20
252
 10
212
 20
252
 10
212
 20
255
 10
222
 20
255
 10
222
 20
252
 10
232
 20
252
 10
232
 20
255
 10
242
 20
255
 10
242
 20
252
 10
252
 20
252
 10
255
 20
252
 10
255
 20
242
 10
252
 20
242
 10
252
 20
232
 10
255
 20
232
 10
255
 20
222
 10
252
 20
222
 10
252
 20
212
 10
255
 20
212
 10
255
 20
202
 10
252
 20
202
 10
252
 20
192
 10
252
 20
189
 10
242
 20
189
 10
242
 20
192
 10
232
 20
192
 10
232
 20
189
 10
222
 20
189
 10
222
 20
192
 10
212
 20
192
 10
212
 20
189
 10
202
 20
189
 10
202
 20
192
 10
192
 20
192
  0
LWPOLYLINE
  5
89
100
AcDbEntity
  8
0
  6
ByLayer
 62
  256
370
   -1
100
AcDbPolyline
 90
   49
 70
    0
 43
0
 10
255
 20
192
 10
252
 20
192
 10
252
 20
202
 10
255
 20
202
 10
255
 20
212
 10
252
 20
212
 10
252
 20
222
 10
255
 20
222
 10
255
 20
232
 10
252
 20
232
 10
252
 20
242
 10
255
 20
242
 10
255
 20
252
 10
255
 20
255
 10
265
 20
255
 10
265
 20
252
 10
275
 20
252
 10
275
 20
255
 10
285
 20
255
 10
285
 20
252
 10
295
 20
252
 10
295
 20
255
 10
305
 20
255
 10
305
 20
252
 10
315
 20
252
 10
318
 20
252
 10
318
 20
242
 10
315
 20
242
 10
315
 20
232
 10
318
 20
232
 10
318
 20
222
 10
315
 20
222
 10
315
 20
212
 10
318
 20
212
 10
318
 20
202
 10
315
 20
202
 10
315
 20
192
 10
315
 20
189
 10
305
 20
189
 10
305
 20
192
 10
295
 20
192
 10
295
 20
189
 10
285
 20
189
 10
285
 20
192
 10
275
 20
192
 10
275
 20
189
 10
265
 20
189
 10
265
 20
192
 10
255
 20
192
  0
LWPOLYLINE
  5
8A
100
AcDbEntity
  8
0
  6
ByLayer
 62
  256
370
   -1
100
AcDbPolyline
 90
   49
 70
    0
 43
0
 10
318
 20
192
 10
315
 20
192
 10
315
 20
202
 10
318
 20
202
 10
318
 20
212
 10
315
 20
212
 10
315
 20
222
 10
318
 20
222
 10
318
 20
232
 10
315
 20
232
 10
315
 20
242
 10
318
 20
242
 10
318
 20
252
 10
318
 20
255
 10
328
 20
255
 10
328
 20
252
 10
338
 20
252
 10
338
 20
255
 10
348
 20
255
 10
348
 20
252
 10
358
 20
252
 10
358
 20
255
 10
368
 20
255
 10
368
 20
252
 10
378
 20
252
 10
381
 20
252
 10
381
 20
242
 10
378
 20
242
 10
378
 20
232
 10
381
 20
232
 10
381
 20
222
 10
378
 20
222
 10
378
 20
212
 10
381
 20
212
 10
381
 20
202
 10
378
 20
202
 10
378
 20
192
 10
378
 20
189
 10
368
 20
189
 10
368
 20
192
 10
358
 20
192
 10
358
 20
189
 10
348
 20
189
 10
348
 20
192
 10
338
 20
192
 10
338
 20
189
 10
328
 20
189
 10
328
 20
192
 10
318
 20
192
  0
LWPOLYLINE
  5
8B
100
AcDbEntity
  8
0
  6
ByLayer
 62
  256
370
   -1
100
AcDbPolyline
 90
    5
 70
    0
 43
0
 10
217
 20
157
 10
227
 20
157
 10
227
 20
160
 10
217
 20
160
 10
217
 20
157
  0
LWPOLYLINE
  5
8C
100
AcDbEntity
  8
0
  6
ByLayer
 62
  256
370
   -1
100
AcDbPolyline
 90
    5
 70
    0
 43
0
 10
279
 20
155
 10
279
 20
163.4
 10
291.6
 20
163.4
 10
291.6
 20
155
 10
279
 20
155
  0
LWPOLYLINE
  5
8D
100
AcDbEntity
  8
0
  6
ByLayer
 62
  256
370
   -1
100
AcDbPolyline
 90
    5
 70
    0
 43
0
 10
343
 20
157
 10
353
 20
157
 10
353
 20
160
 10
343
 20
160
 10
343
 20
157
  0
CIRCLE
  5
8E
100
AcDbEntity
  8
0
  6
ByLayer
 62
  256
370
   -1
100
AcDbCircle
 10
272
 20
222
 40
9
  0
CIRCLE
  5
8F
100
AcDbEntity
  8
0
  6
ByLayer
 62
  256
370
   -1
100
AcDbCircle
 10
298
 20
222
 40
9
  0
LWPOLYLINE
  5
90
100
AcDbEntity
  8
Comentários
  6
ByLayer
 62
  256
370
   -1
100
AcDbPolyline
 90
    5
 70
    0
 43
0
 10
381
 20
129
 10
381
 20
189
 10
441
 20
189
 10
441
 20
129
 10
381
 20
129
  0
LWPOLYLINE
  5
91
100
AcDbEntity
  8
Comentários
  6
ByLayer
 62
  256
370
   -1
100
AcDbPolyline
 90
    3
 70
    0
 43
0
 10
381
 20
129
 10
378
 20
129
 10
378
 20
139
  0
LWPOLYLINE
  5
92
100
AcDbEntity
  8
0
  6
ByLayer
 62
  256
370
   -1
100
AcDbPolyline
 90
   49
 70
    0
 43
0
 10
381
 20
129
 10
378
 20
129
 10
378
 20
139
 10
381
 20
139
 10
381
 20
149
 10
378
 20
149
 10
378
 20
159
 10
381
 20
159
 10
381
 20
169
 10
378
 20
169
 10
378
 20
179
 10
381
 20
179
 10
381
 20
189
 10
381
 20
192
 10
391
 20
192
 10
391
 20
189
 10
401
 20
189
 10
401
 20
192
 10
411
 20
192
 10
411
 20
189
 10
421
 20
189
 10
421
 20
192
 10
431
 20
192
 10
431
 20
189
 10
441
 20
189
 10
444
 20
189
 10
444
 20
179
 10
441
 20
179
 10
441
 20
169
 10
444
 20
169
 10
444
 20
159
 10
441
 20
159
 10
441
 20
149
 10
444
 20
149
 10
444
 20
139
 10
441
 20
139
 10
441
 20
129
 10
441
 20
126
 10
431
 20
126
 10
431
 20
129
 10
421
 20
129
 10
421
 20
126
 10
411
 20
126
 10
411
 20
129
 10
401
 20
129
 10
401
 20
126
 10
391
 20
126
 10
391
 20
129
 10
381
 20
129
  0
LWPOLYLINE
  5
93
100
AcDbEntity
  8
0
  6
ByLayer
 62
  256
370
   -1
100
AcDbPolyline
 90
   49
 70
    0
 43
0
 10
444
 20
129
 10
441
 20
129
 10
441
 20
139
 10
444
 20
139
 10
444
 20
149
 10
441
 20
149
 10
441
 20
159
 10
444
 20
159
 10
444
 20
169
 10
441
 20
169
 10
441
 20
179
 10
444
 20
179
 10
444
 20
189
 10
444
 20
192
 10
454
 20
192
 10
454
 20
189
 10
464
 20
189
 10
464
 20
192
 10
474
 20
192
 10
474
 20
189
 10
484
 20
189
 10
484
 20
192
 10
494
 20
192
 10
494
 20
189
 10
504
 20
189
 10
507
 20
189
 10
507
 20
179
 10
504
 20
179
 10
504
 20
169
 10
507
 20
169
 10
507
 20
159
 10
504
 20
159
 10
504
 20
149
 10
507
 20
149
 10
507
 20
139
 10
504
 20
139
 10
504
 20
129
 10
504
 20
126
 10
494
 20
126
 10
494
 20
129
 10
484
 20
129
 10
484
 20
126
 10
474
 20
126
 10
474
 20
129
 10
464
 20
129
 10
464
 20
126
 10
454
 20
126
 10
454
 20
129
 10
444
 20
129
  0
LWPOLYLINE
  5
94
100
AcDbEntity
  8
0
  6
ByLayer
 62
  256
370
   -1
100
AcDbPolyline
 90
   49
 70
    0
 43
0
 10
507
 20
129
 10
504
 20
129
 10
504
 20
139
 10
507
 20
139
 10
507
 20
149
 10
504
 20
149
 10
504
 20
159
 10
507
 20
159
 10
507
 20
169
 10
504
 20
169
 10
504
 20
179
 10
507
 20
179
 10
507
 20
189
 10
507
 20
192
 10
517
 20
192
 10
517
 20
189
 10
527
 20
189
 10
527
 20
192
 10
537
 20
192
 10
537
 20
189
 10
547
 20
189
 10
547
 20
192
 10
557
 20
192
 10
557
 20
189
 10
567
 20
189
 10
570
 20
189
 10
570
 20
179
 10
567
 20
179
 10
567
 20
169
 10
570
 20
169
 10
570
 20
159
 10
567
 20
159
 10
567
 20
149
 10
570
 20
149
 10
570
 20
139
 10
567
 20
139
 10
567
 20
129
 10
567
 20
126
 10
557
 20
126
 10
557
 20
129
 10
547
 20
129
 10
547
 20
126
 10
537
 20
126
 10
537
 20
129
 10
527
 20
129
 10
527
 20
126
 10
517
 20
126
 10
517
 20
129
 10
507
 20
129
  0
LWPOLYLINE
  5
95
100
AcDbEntity
  8
0
  6
ByLayer
 62
  256
370
   -1
100
AcDbPolyline
 90
   49
 70
    0
 43
0
 10
381
 20
192
 10
378
 20
192
 10
378
 20
202
 10
381
 20
202
 10
381
 20
212
 10
378
 20
212
 10
378
 20
222
 10
381
 20
222
 10
381
 20
232
 10
378
 20
232
 10
378
 20
242
 10
381
 20
242
 10
381
 20
252
 10
381
 20
255
 10
391
 20
255
 10
391
 20
252
 10
401
 20
252
 10
401
 20
255
 10
411
 20
255
 10
411
 20
252
 10
421
 20
252
 10
421
 20
255
 10
431
 20
255
 10
431
 20
252
 10
441
 20
252
 10
444
 20
252
 10
444
 20
242
 10
441
 20
242
 10
441
 20
232
 10
444
 20
232
 10
444
 20
222
 10
441
 20
222
 10
441
 20
212
 10
444
 20
212
 10
444
 20
202
 10
441
 20
202
 10
441
 20
192
 10
441
 20
189
 10
431
 20
189
 10
431
 20
192
 10
421
 20
192
 10
421
 20
189
 10
411
 20
189
 10
411
 20
192
 10
401
 20
192
 10
401
 20
189
 10
391
 20
189
 10
391
 20
192
 10
381
 20
192
  0
LWPOLYLINE
  5
96
100
AcDbEntity
  8
0
  6
ByLayer
 62
  256
370
   -1
100
AcDbPolyline
 90
   49
 70
    0
 43
0
 10
444
 20
192
 10
441
 20
192
 10
441
 20
202
 10
444
 20
202
 10
444
 20
212
 10
441
 20
212
 10
441
 20
222
 10
444
 20
222
 10
444
 20
232
 10
441
 20
232
 10
441
 20
242
 10
444
 20
242
 10
444
 20
252
 10
444
 20
255
 10
454
 20
255
 10
454
 20
252
 10
464
 20
252
 10
464
 20
255
 10
474
 20
255
 10
474
 20
252
 10
484
 20
252
 10
484
 20
255
 10
494
 20
255
 10
494
 20
252
 10
504
 20
252
 10
507
 20
252
 10
507
 20
242
 10
504
 20
242
 10
504
 20
232
 10
507
 20
232
 10
507
 20
222
 10
504
 20
222
 10
504
 20
212
 10
507
 20
212
 10
507
 20
202
 10
504
 20
202
 10
504
 20
192
 10
504
 20
189
 10
494
 20
189
 10
494
 20
192
 10
484
 20
192
 10
484
 20
189
 10
474
 20
189
 10
474
 20
192
 10
464
 20
192
 10
464
 20
189
 10
454
 20
189
 10
454
 20
192
 10
444
 20
192
  0
LWPOLYLINE
  5
97
100
AcDbEntity
  8
0
  6
ByLayer
 62
  256
370
   -1
100
AcDbPolyline
 90
   49
 70
    0
 43
0
 10
507
 20
192
 10
504
 20
192
 10
504
 20
202
 10
507
 20
202
 10
507
 20
212
 10
504
 20
212
 10
504
 20
222
 10
507
 20
222
 10
507
 20
232
 10
504
 20
232
 10
504
 20
242
 10
507
 20
242
 10
507
 20
252
 10
507
 20
255
 10
517
 20
255
 10
517
 20
252
 10
527
 20
252
 10
527
 20
255
 10
537
 20
255
 10
537
 20
252
 10
547
 20
252
 10
547
 20
255
 10
557
 20
255
 10
557
 20
252
 10
567
 20
252
 10
570
 20
252
 10
570
 20
242
 10
567
 20
242
 10
567
 20
232
 10
570
 20
232
 10
570
 20
222
 10
567
 20
222
 10
567
 20
212
 10
570
 20
212
 10
570
 20
202
 10
567
 20
202
 10
567
 20
192
 10
567
 20
189
 10
557
 20
189
 10
557
 20
192
 10
547
 20
192
 10
547
 20
189
 10
537
 20
189
 10
537
 20
192
 10
527
 20
192
 10
527
 20
189
 10
517
 20
189
 10
517
 20
192
 10
507
 20
192
  0
LWPOLYLINE
  5
98
100
AcDbEntity
  8
0
  6
ByLayer
 62
  256
370
   -1
100
AcDbPolyline
 90
    5
 70
    0
 43
0
 10
406
 20
157
 10
416
 20
157
 10
416
 20
160
 10
406
 20
160
 10
406
 20
157
  0
LWPOLYLINE
  5
99
100
AcDbEntity
  8
0
  6
ByLayer
 62
  256
370
   -1
100
AcDbPolyline
 90
    5
 70
    0
 43
0
 10
468
 20
155
 10
468
 20
163.4
 10
480.6
 20
163.4
 10
480.6
 20
155
 10
468
 20
155
  0
LWPOLYLINE
  5
9A
100
AcDbEntity
  8
0
  6
ByLayer
 62
  256
370
   -1
100
AcDbPolyline
 90
    5
 70
    0
 43
0
 10
532
 20
157
 10
542
 20
157
 10
542
 20
160
 10
532
 20
160
 10
532
 20
157
  0
CIRCLE
  5
9B
100
AcDbEntity
  8
0
  6
ByLayer
 62
  256
370
   -1
100
AcDbCircle
 10
461
 20
222
 40
9
  0
CIRCLE
  5
9C
100
AcDbEntity
  8
0
  6
ByLayer
 62
  256
370
   -1
100
AcDbCircle
 10
487
 20
222
 40
9
  0
LWPOLYLINE
  5
9D
100
AcDbEntity
  8
Comentários
  6
ByLayer
 62
  256
370
   -1
100
AcDbPolyline
 90
    5
 70
    0
 43
0
 10
3
 20
255
 10
3
 20
315
 10
63
 20
315
 10
63
 20
255
 10
3
 20
255
  0
LWPOLYLINE
  5
9E
100
AcDbEntity
  8
Comentários
  6
ByLayer
 62
  256
370
   -1
100
AcDbPolyline
 90
    3
 70
    0
 43
0
 10
3
 20
255
 10
0
 20
255
 10
0
 20
265
  0
LWPOLYLINE
  5
9F
100
AcDbEntity
  8
0
  6
ByLayer
 62
  256
370
   -1
100
AcDbPolyline
 90
   49
 70
    0
 43
0
 10
3
 20
255
 10
0
 20
255
 10
0
 20
265
 10
3
 20
265
 10
3
 20
275
 10
0
 20
275
 10
0
 20
285
 10
3
 20
285
 10
3
 20
295
 10
0
 20
295
 10
0
 20
305
 10
3
 20
305
 10
3
 20
315
 10
3
 20
318
 10
13
 20
318
 10
13
 20
315
 10
23
 20
315
 10
23
 20
318
 10
33
 20
318
 10
33
 20
315
 10
43
 20
315
 10
43
 20
318
 10
53
 20
318
 10
53
 20
315
 10
63
 20
315
 10
66
 20
315
 10
66
 20
305
 10
63
 20
305
 10
63
 20
295
 10
66
 20
295
 10
66
 20
285
 10
63
 20
285
 10
63
 20
275
 10
66
 20
275
 10
66
 20
265
 10
63
 20
265
 10
63
 20
255
 10
63
 20
252
 10
53
 20
252
 10
53
 20
255
 10
43
 20
255
 10
43
 20
252
 10
33
 20
252
 10
33
 20
255
 10
23
 20
255
 10
23
 20
252
 10
13
 20
252
 10
13
 20
255
 10
3
 20
255
  0
LWPOLYLINE
  5
A0
100
AcDbEntity
  8
0
  6
ByLayer
 62
  256
370
   -1
100
AcDbPolyline
 90
   49
 70
    0
 43
0
 10
66
 20
255
 10
63
 20
255
 10
63
 20
265
 10
66
 20
265
 10
66
 20
275
 10
63
 20
275
 10
63
 20
285
 10
66
 20
285
 10
66
 20
295
 10
63
 20
295
 10
63
 20
305
 10
66
 20
305
 10
66
 20
315
 10
66
 20
318
 10
76
 20
318
 10
76
 20
315
 10
86
 20
315
 10
86
 20
318
 10
96
 20
318
 10
96
 20
315
 10
106
 20
315
 10
106
 20
318
 10
116
 20
318
 10
116
 20
315
 10
126
 20
315
 10
129
 20
315
 10
129
 20
305
 10
126
 20
305
 10
126
 20
295
 10
129
 20
295
 10
129
 20
285
 10
126
 20
285
 10
126
 20
275
 10
129
 20
275
 10
129
 20
265
 10
126
 20
265
 10
126
 20
255
 10
126
 20
252
 10
116
 20
252
 10
116
 20
255
 10
106
 20
255
 10
106
 20
252
 10
96
 20
252
 10
96
 20
255
 10
86
 20
255
 10
86
 20
252
 10
76
 20
252
 10
76
 20
255
 10
66
 20
255
  0
LWPOLYLINE
  5
A1
100
AcDbEntity
  8
0
  6
ByLayer
 62
  256
370
   -1
100
AcDbPolyline
 90
   49
 70
    0
 43
0
 10
129
 20
255
 10
126
 20
255
 10
126
 20
265
 10
129
 20
265
 10
129
 20
275
 10
126
 20
275
 10
126
 20
285
 10
129
 20
285
 10
129
 20
295
 10
126
 20
295
 10
126
 20
305
 10
129
 20
305
 10
129
 20
315
 10
129
 20
318
 10
139
 20
318
 10
139
 20
315
 10
149
 20
315
 10
149
 20
318
 10
159
 20
318
 10
159
 20
315
 10
169
 20
315
 10
169
 20
318
 10
179
 20
318
 10
179
 20
315
 10
189
 20
315
 10
192
 20
315
 10
192
 20
305
 10
189
 20
305
 10
189
 20
295
 10
192
 20
295
 10
192
 20
285
 10
189
 20
285
 10
189
 20
275
 10
192
 20
275
 10
192
 20
265
 10
189
 20
265
 10
189
 20
255
 10
189
 20
252
 10
179
 20
252
 10
179
 20
255
 10
169
 20
255
 10
169
 20
252
 10
159
 20
252
 10
159
 20
255
 10
149
 20
255
 10
149
 20
252
 10
139
 20
252
 10
139
 20
255
 10
129
 20
255
  0
LWPOLYLINE
  5
A2
100
AcDbEntity
  8
0
  6
ByLayer
 62
  256
370
   -1
100
AcDbPolyline
 90
   49
 70
    0
 43
0
 10
3
 20
318
 10
0
 20
318
 10
0
 20
328
 10
3
 20
328
 10
3
 20
338
 10
0
 20
338
 10
0
 20
348
 10
3
 20
348
 10
3
 20
358
 10
0
 20
358
 10
0
 20
368
 10
3
 20
368
 10
3
 20
378
 10
3
 20
381
 10
13
 20
381
 10
13
 20
378
 10
23
 20
378
 10
23
 20
381
 10
33
 20
381
 10
33
 20
378
 10
43
 20
378
 10
43
 20
381
 10
53
 20
381
 10
53
 20
378
 10
63
 20
378
 10
66
 20
378
 10
66
 20
368
 10
63
 20
368
 10
63
 20
358
 10
66
 20
358
 10
66
 20
348
 10
63
 20
348
 10
63
 20
338
 10
66
 20
338
 10
66
 20
328
 10
63
 20
328
 10
63
 20
318
 10
63
 20
315
 10
53
 20
315
 10
53
 20
318
 10
43
 20
318
 10
43
 20
315
 10
33
 20
315
 10
33
 20
318
 10
23
 20
318
 10
23
 20
315
 10
13
 20
315
 10
13
 20
318
 10
3
 20
318
  0
LWPOLYLINE
  5
A3
100
AcDbEntity
  8
0
  6
ByLayer
 62
  256
370
   -1
100
AcDbPolyline
 90
   49
 70
    0
 43
0
 10
66
 20
318
 10
63
 20
318
 10
63
 20
328
 10
66
 20
328
 10
66
 20
338
 10
63
 20
338
 10
63
 20
348
 10
66
 20
348
 10
66
 20
358
 10
63
 20
358
 10
63
 20
368
 10
66
 20
368
 10
66
 20
378
 10
66
 20
381
 10
76
 20
381
 10
76
 20
378
 10
86
 20
378
 10
86
 20
381
 10
96
 20
381
 10
96
 20
378
 10
106
 20
378
 10
106
 20
381
 10
116
 20
381
 10
116
 20
378
 10
126
 20
378
 10
129
 20
378
 10
129
 20
368
 10
126
 20
368
 10
126
 20
358
 10
129
 20
358
 10
129
 20
348
 10
126
 20
348
 10
126
 20
338
 10
129
 20
338
 10
129
 20
328
 10
126
 20
328
 10
126
 20
318
 10
126
 20
315
 10
116
 20
315
 10
116
 20
318
 10
106
 20
318
 10
106
 20
315
 10
96
 20
315
 10
96
 20
318
 10
86
 20
318
 10
86
 20
315
 10
76
 20
315
 10
76
 20
318
 10
66
 20
318
  0
LWPOLYLINE
  5
A4
100
AcDbEntity
  8
0
  6
ByLayer
 62
  256
370
   -1
100
AcDbPolyline
 90
   49
 70
    0
 43
0
 10
129
 20
318
 10
126
 20
318
 10
126
 20
328
 10
129
 20
328
 10
129
 20
338
 10
126
 20
338
 10
126
 20
348
 10
129
 20
348
 10
129
 20
358
 10
126
 20
358
 10
126
 20
368
 10
129
 20
368
 10
129
 20
378
 10
129
 20
381
 10
139
 20
381
 10
139
 20
378
 10
149
 20
378
 10
149
 20
381
 10
159
 20
381
 10
159
 20
378
 10
169
 20
378
 10
169
 20
381
 10
179
 20
381
 10
179
 20
378
 10
189
 20
378
 10
192
 20
378
 10
192
 20
368
 10
189
 20
368
 10
189
 20
358
 10
192
 20
358
 10
192
 20
348
 10
189
 20
348
 10
189
 20
338
 10
192
 20
338
 10
192
 20
328
 10
189
 20
328
 10
189
 20
318
 10
189
 20
315
 10
179
 20
315
 10
179
 20
318
 10
169
 20
318
 10
169
 20
315
 10
159
 20
315
 10
159
 20
318
 10
149
 20
318
 10
149
 20
315
 10
139
 20
315
 10
139
 20
318
 10
129
 20
318
  0
LWPOLYLINE
  5
A5
100
AcDbEntity
  8
0
  6
ByLayer
 62
  256
370
   -1
100
AcDbPolyline
 90
    5
 70
    0
 43
0
 10
28
 20
283
 10
38
 20
283
 10
38
 20
286
 10
28
 20
286
 10
28
 20
283
  0
LWPOLYLINE
  5
A6
100
AcDbEntity
  8
0
  6
ByLayer
 62
  256
370
   -1
100
AcDbPolyline
 90
    5
 70
    0
 43
0
 10
90
 20
281
 10
90
 20
289.4
 10
102.6
 20
289.4
 10
102.6
 20
281
 10
90
 20
281
  0
LWPOLYLINE
  5
A7
100
AcDbEntity
  8
0
  6
ByLayer
 62
  256
370
   -1
100
AcDbPolyline
 90
    5
 70
    0
 43
0
 10
154
 20
283
 10
164
 20
283
 10
164
 20
286
 10
154
 20
286
 10
154
 20
283
  0
CIRCLE
  5
A8
100
AcDbEntity
  8
0
  6
ByLayer
 62
  256
370
   -1
100
AcDbCircle
 10
83
 20
348
 40
9
  0
CIRCLE
  5
A9
100
AcDbEntity
  8
0
  6
ByLayer
 62
  256
370
   -1
100
AcDbCircle
 10
109
 20
348
 40
9
  0
LWPOLYLINE
  5
AA
100
AcDbEntity
  8
Comentários
  6
ByLayer
 62
  256
370
   -1
100
AcDbPolyline
 90
    5
 70
    0
 43
0
 10
192
 20
255
 10
192
 20
315
 10
252
 20
315
 10
252
 20
255
 10
192
 20
255
  0
LWPOLYLINE
  5
AB
100
AcDbEntity
  8
Comentários
  6
ByLayer
 62
  256
370
   -1
100
AcDbPolyline
 90
    3
 70
    0
 43
0
 10
192
 20
255
 10
189
 20
255
 10
189
 20
265
  0
LWPOLYLINE
  5
AC
100
AcDbEntity
  8
0
  6
ByLayer
 62
  256
370
   -1
100
AcDbPolyline
 90
   49
 70
    0
 43
0
 10
192
 20
255
 10
189
 20
255
 10
189
 20
265
 10
192
 20
265
 10
192
 20
275
 10
189
 20
275
 10
189
 20
285
 10
192
 20
285
 10
192
 20
295
 10
189
 20
295
 10
189
 20
305
 10
192
 20
305
 10
192
 20
315
 10
192
 20
318
 10
202
 20
318
 10
202
 20
315
 10
212
 20
315
 10
212
 20
318
 10
222
 20
318
 10
222
 20
315
 10
232
 20
315
 10
232
 20
318
 10
242
 20
318
 10
242
 20
315
 10
252
 20
315
 10
255
 20
315
 10
255
 20
305
 10
252
 20
305
 10
252
 20
295
 10
255
 20
295
 10
255
 20
285
 10
252
 20
285
 10
252
 20
275
 10
255
 20
275
 10
255
 20
265
 10
252
 20
265
 10
252
 20
255
 10
252
 20
252
 10
242
 20
252
 10
242
 20
255
 10
232
 20
255
 10
232
 20
252
 10
222
 20
252
 10
222
 20
255
 10
212
 20
255
 10
212
 20
252
 10
202
 20
252
 10
202
 20
255
 10
192
 20
255
  0
LWPOLYLINE
  5
AD
100
AcDbEntity
  8
0
  6
ByLayer
 62
  256
370
   -1
100
AcDbPolyline
 90
   49
 70
    0
 43
0
 10
255
 20
255
 10
252
 20
255
 10
252
 20
265
 10
255
 20
265
 10
255
 20
275
 10
252
 20
275
 10
252
 20
285
 10
255
 20
285
 10
255
 20
295
 10
252
 20
295
 10
252
 20
305
 10
255
 20
305
 10
255
 20
315
 10
255
 20
318
 10
265
 20
318
 10
265
 20
315
 10
275
 20
315
 10
275
 20
318
 10
285
 20
318
 10
285
 20
315
 10
295
 20
315
 10
295
 20
318
 10
305
 20
318
 10
305
 20
315
 10
315
 20
315
 10
318
 20
315
 10
318
 20
305
 10
315
 20
305
 10
315
 20
295
 10
318
 20
295
 10
318
 20
285
 10
315
 20
285
 10
315
 20
275
 10
318
 20
275
 10
318
 20
265
 10
315
 20
265
 10
315
 20
255
 10
315
 20
252
 10
305
 20
252
 10
305
 20
255
 10
295
 20
255
 10
295
 20
252
 10
285
 20
252
 10
285
 20
255
 10
275
 20
255
 10
275
 20
252
 10
265
 20
252
 10
265
 20
255
 10
255
 20
255
  0
LWPOLYLINE
  5
AE
100
AcDbEntity
  8
0
  6
ByLayer
 62
  256
370
   -1
100
AcDbPolyline
 90
   49
 70
    0
 43
0
 10
318
 20
255
 10
315
 20
255
 10
315
 20
265
 10
318
 20
265
 10
318
 20
275
 10
315
 20
275
 10
315
 20
285
 10
318
 20
285
 10
318
 20
295
 10
315
 20
295
 10
315
 20
305
 10
318
 20
305
 10
318
 20
315
 10
318
 20
318
 10
328
 20
318
 10
328
 20
315
 10
338
 20
315
 10
338
 20
318
 10
348
 20
318
 10
348
 20
315
 10
358
 20
315
 10
358
 20
318
 10
368
 20
318
 10
368
 20
315
 10
378
 20
315
 10
381
 20
315
 10
381
 20
305
 10
378
 20
305
 10
378
 20
295
 10
381
 20
295
 10
381
 20
285
 10
378
 20
285
 10
378
 20
275
 10
381
 20
275
 10
381
 20
265
 10
378
 20
265
 10
378
 20
255
 10
378
 20
252
 10
368
 20
252
 10
368
 20
255
 10
358
 20
255
 10
358
 20
252
 10
348
 20
252
 10
348
 20
255
 10
338
 20
255
 10
338
 20
252
 10
328
 20
252
 10
328
 20
255
 10
318
 20
255
  0
LWPOLYLINE
  5
AF
100
AcDbEntity
  8
0
  6
ByLayer
 62
  256
370
   -1
100
AcDbPolyline
 90
   49
 70
    0
 43
0
 10
192
 20
318
 10
189
 20
318
 10
189
 20
328
 10
192
 20
328
 10
192
 20
338
 10
189
 20
338
 10
189
 20
348
 10
192
 20
348
 10
192
 20
358
 10
189
 20
358
 10
189
 20
368
 10
192
 20
368
 10
192
 20
378
 10
192
 20
381
 10
202
 20
381
 10
202
 20
378
 10
212
 20
378
 10
212
 20
381
 10
222
 20
381
 10
222
 20
378
 10
232
 20
378
 10
232
 20
381
 10
242
 20
381
 10
242
 20
378
 10
252
 20
378
 10
255
 20
378
 10
255
 20
368
 10
252
 20
368
 10
252
 20
358
 10
255
 20
358
 10
255
 20
348
 10
252
 20
348
 10
252
 20
338
 10
255
 20
338
 10
255
 20
328
 10
252
 20
328
 10
252
 20
318
 10
252
 20
315
 10
242
 20
315
 10
242
 20
318
 10
232
 20
318
 10
232
 20
315
 10
222
 20
315
 10
222
 20
318
 10
212
 20
318
 10
212
 20
315
 10
202
 20
315
 10
202
 20
318
 10
192
 20
318
  0
LWPOLYLINE
  5
B0
100
AcDbEntity
  8
0
  6
ByLayer
 62
  256
370
   -1
100
AcDbPolyline
 90
   49
 70
    0
 43
0
 10
255
 20
318
 10
252
 20
318
 10
252
 20
328
 10
255
 20
328
 10
255
 20
338
 10
252
 20
338
 10
252
 20
348
 10
255
 20
348
 10
255
 20
358
 10
252
 20
358
 10
252
 20
368
 10
255
 20
368
 10
255
 20
378
 10
255
 20
381
 10
265
 20
381
 10
265
 20
378
 10
275
 20
378
 10
275
 20
381
 10
285
 20
381
 10
285
 20
378
 10
295
 20
378
 10
295
 20
381
 10
305
 20
381
 10
305
 20
378
 10
315
 20
378
 10
318
 20
378
 10
318
 20
368
 10
315
 20
368
 10
315
 20
358
 10
318
 20
358
 10
318
 20
348
 10
315
 20
348
 10
315
 20
338
 10
318
 20
338
 10
318
 20
328
 10
315
 20
328
 10
315
 20
318
 10
315
 20
315
 10
305
 20
315
 10
305
 20
318
 10
295
 20
318
 10
295
 20
315
 10
285
 20
315
 10
285
 20
318
 10
275
 20
318
 10
275
 20
315
 10
265
 20
315
 10
265
 20
318
 10
255
 20
318
  0
LWPOLYLINE
  5
B1
100
AcDbEntity
  8
0
  6
ByLayer
 62
  256
370
   -1
100
AcDbPolyline
 90
   49
 70
    0
 43
0
 10
318
 20
318
 10
315
 20
318
 10
315
 20
328
 10
318
 20
328
 10
318
 20
338
 10
315
 20
338
 10
315
 20
348
 10
318
 20
348
 10
318
 20
358
 10
315
 20
358
 10
315
 20
368
 10
318
 20
368
 10
318
 20
378
 10
318
 20
381
 10
328
 20
381
 10
328
 20
378
 10
338
 20
378
 10
338
 20
381
 10
348
 20
381
 10
348
 20
378
 10
358
 20
378
 10
358
 20
381
 10
368
 20
381
 10
368
 20
378
 10
378
 20
378
 10
381
 20
378
 10
381
 20
368
 10
378
 20
368
 10
378
 20
358
 10
381
 20
358
 10
381
 20
348
 10
378
 20
348
 10
378
 20
338
 10
381
 20
338
 10
381
 20
328
 10
378
 20
328
 10
378
 20
318
 10
378
 20
315
 10
368
 20
315
 10
368
 20
318
 10
358
 20
318
 10
358
 20
315
 10
348
 20
315
 10
348
 20
318
 10
338
 20
318
 10
338
 20
315
 10
328
 20
315
 10
328
 20
318
 10
318
 20
318
  0
LWPOLYLINE
  5
B2
100
AcDbEntity
  8
0
  6
ByLayer
 62
  256
370
   -1
100
AcDbPolyline
 90
    5
 70
    0
 43
0
 10
217
 20
283
 10
227
 20
283
 10
227
 20
286
 10
217
 20
286
 10
217
 20
283
  0
LWPOLYLINE
  5
B3
100
AcDbEntity
  8
0
  6
ByLayer
 62
  256
370
   -1
100
AcDbPolyline
 90
    5
 70
    0
 43
0
 10
279
 20
281
 10
279
 20
289.4
 10
291.6
 20
289.4
 10
291.6
 20
281
 10
279
 20
281
  0
LWPOLYLINE
  5
B4
100
AcDbEntity
  8
0
  6
ByLayer
 62
  256
370
   -1
100
AcDbPolyline
 90
    5
 70
    0
 43
0
 10
343
 20
283
 10
353
 20
283
 10
353
 20
286
 10
343
 20
286
 10
343
 20
283
  0
CIRCLE
  5
B5
100
AcDbEntity
  8
0
  6
ByLayer
 62
  256
370
   -1
100
AcDbCircle
 10
272
 20
348
 40
9
  0
CIRCLE
  5
B6
100
AcDbEntity
  8
0
  6
ByLayer
 62
  256
370
   -1
100
AcDbCircle
 10
298
 20
348
 40
9
  0
LWPOLYLINE
  5
B7
100
AcDbEntity
  8
Comentários
  6
ByLayer
 62
  256
370
   -1
100
AcDbPolyline
 90
    5
 70
    0
 43
0
 10
381
 20
255
 10
381
 20
315
 10
441
 20
315
 10
441
 20
255
 10
381
 20
255
  0
LWPOLYLINE
  5
B8
100
AcDbEntity
  8
Comentários
  6
ByLayer
 62
  256
370
   -1
100
AcDbPolyline
 90
    3
 70
    0
 43
0
 10
381
 20
255
 10
378
 20
255
 10
378
 20
265
  0
LWPOLYLINE
  5
B9
100
AcDbEntity
  8
0
  6
ByLayer
 62
  256
370
   -1
100
AcDbPolyline
 90
   49
 70
    0
 43
0
 10
381
 20
255
 10
378
 20
255
 10
378
 20
265
 10
381
 20
265
 10
381
 20
275
 10
378
 20
275
 10
378
 20
285
 10
381
 20
285
 10
381
 20
295
 10
378
 20
295
 10
378
 20
305
 10
381
 20
305
 10
381
 20
315
 10
381
 20
318
 10
391
 20
318
 10
391
 20
315
 10
401
 20
315
 10
401
 20
318
 10
411
 20
318
 10
411
 20
315
 10
421
 20
315
 10
421
 20
318
 10
431
 20
318
 10
431
 20
315
 10
441
 20
315
 10
444
 20
315
 10
444
 20
305
 10
441
 20
305
 10
441
 20
295
 10
444
 20
295
 10
444
 20
285
 10
441
 20
285
 10
441
 20
275
 10
444
 20
275
 10
444
 20
265
 10
441
 20
265
 10
441
 20
255
 10
441
 20
252
 10
431
 20
252
 10
431
 20
255
 10
421
 20
255
 10
421
 20
252
 10
411
 20
252
 10
411
 20
255
 10
401
 20
255
 10
401
 20
252
 10
391
 20
252
 10
391
 20
255
 10
381
 20
255
  0
LWPOLYLINE
  5
BA
100
AcDbEntity
  8
0
  6
ByLayer
 62
  256
370
   -1
100
AcDbPolyline
 90
   49
 70
    0
 43
0
 10
444
 20
255
 10
441
 20
255
 10
441
 20
265
 10
444
 20
265
 10
444
 20
275
 10
441
 20
275
 10
441
 20
285
 10
444
 20
285
 10
444
 20
295
 10
441
 20
295
 10
441
 20
305
 10
444
 20
305
 10
444
 20
315
 10
444
 20
318
 10
454
 20
318
 10
454
 20
315
 10
464
 20
315
 10
464
 20
318
 10
474
 20
318
 10
474
 20
315
 10
484
 20
315
 10
484
 20
318
 10
494
 20
318
 10
494
 20
315
 10
504
 20
315
 10
507
 20
315
 10
507
 20
305
 10
504
 20
305
 10
504
 20
295
 10
507
 20
295
 10
507
 20
285
 10
504
 20
285
 10
504
 20
275
 10
507
 20
275
 10
507
 20
265
 10
504
 20
265
 10
504
 20
255
 10
504
 20
252
 10
494
 20
252
 10
494
 20
255
 10
484
 20
255
 10
484
 20
252
 10
474
 20
252
 10
474
 20
255
 10
464
 20
255
 10
464
 20
252
 10
454
 20
252
 10
454
 20
255
 10
444
 20
255
  0
LWPOLYLINE
  5
BB
100
AcDbEntity
  8
0
  6
ByLayer
 62
  256
370
   -1
100
AcDbPolyline
 90
   49
 70
    0
 43
0
 10
507
 20
255
 10
504
 20
255
 10
504
 20
265
 10
507
 20
265
 10
507
 20
275
 10
504
 20
275
 10
504
 20
285
 10
507
 20
285
 10
507
 20
295
 10
504
 20
295
 10
504
 20
305
 10
507
 20
305
 10
507
 20
315
 10
507
 20
318
 10
517
 20
318
 10
517
 20
315
 10
527
 20
315
 10
527
 20
318
 10
537
 20
318
 10
537
 20
315
 10
547
 20
315
 10
547
 20
318
 10
557
 20
318
 10
557
 20
315
 10
567
 20
315
 10
570
 20
315
 10
570
 20
305
 10
567
 20
305
 10
567
 20
295
 10
570
 20
295
 10
570
 20
285
 10
567
 20
285
 10
567
 20
275
 10
570
 20
275
 10
570
 20
265
 10
567
 20
265
 10
567
 20
255
 10
567
 20
252
 10
557
 20
252
 10
557
 20
255
 10
547
 20
255
 10
547
 20
252
 10
537
 20
252
 10
537
 20
255
 10
527
 20
255
 10
527
 20
252
 10
517
 20
252
 10
517
 20
255
 10
507
 20
255
  0
LWPOLYLINE
  5
BC
100
AcDbEntity
  8
0
  6
ByLayer
 62
  256
370
   -1
100
AcDbPolyline
 90
   49
 70
    0
 43
0
 10
381
 20
318
 10
378
 20
318
 10
378
 20
328
 10
381
 20
328
 10
381
 20
338
 10
378
 20
338
 10
378
 20
348
 10
381
 20
348
 10
381
 20
358
 10
378
 20
358
 10
378
 20
368
 10
381
 20
368
 10
381
 20
378
 10
381
 20
381
 10
391
 20
381
 10
391
 20
378
 10
401
 20
378
 10
401
 20
381
 10
411
 20
381
 10
411
 20
378
 10
421
 20
378
 10
421
 20
381
 10
431
 20
381
 10
431
 20
378
 10
441
 20
378
 10
444
 20
378
 10
444
 20
368
 10
441
 20
368
 10
441
 20
358
 10
444
 20
358
 10
444
 20
348
 10
441
 20
348
 10
441
 20
338
 10
444
 20
338
 10
444
 20
328
 10
441
 20
328
 10
441
 20
318
 10
441
 20
315
 10
431
 20
315
 10
431
 20
318
 10
421
 20
318
 10
421
 20
315
 10
411
 20
315
 10
411
 20
318
 10
401
 20
318
 10
401
 20
315
 10
391
 20
315
 10
391
 20
318
 10
381
 20
318
  0
LWPOLYLINE
  5
BD
100
AcDbEntity
  8
0
  6
ByLayer
 62
  256
370
   -1
100
AcDbPolyline
 90
   49
 70
    0
 43
0
 10
444
 20
318
 10
441
 20
318
 10
441
 20
328
 10
444
 20
328
 10
444
 20
338
 10
441
 20
338
 10
441
 20
348
 10
444
 20
348
 10
444
 20
358
 10
441
 20
358
 10
441
 20
368
 10
444
 20
368
 10
444
 20
378
 10
444
 20
381
 10
454
 20
381
 10
454
 20
378
 10
464
 20
378
 10
464
 20
381
 10
474
 20
381
 10
474
 20
378
 10
484
 20
378
 10
484
 20
381
 10
494
 20
381
 10
494
 20
378
 10
504
 20
378
 10
507
 20
378
 10
507
 20
368
 10
504
 20
368
 10
504
 20
358
 10
507
 20
358
 10
507
 20
348
 10
504
 20
348
 10
504
 20
338
 10
507
 20
338
 10
507
 20
328
 10
504
 20
328
 10
504
 20
318
 10
504
 20
315
 10
494
 20
315
 10
494
 20
318
 10
484
 20
318
 10
484
 20
315
 10
474
 20
315
 10
474
 20
318
 10
464
 20
318
 10
464
 20
315
 10
454
 20
315
 10
454
 20
318
 10
444
 20
318
  0
LWPOLYLINE
  5
BE
100
AcDbEntity
  8
0
  6
ByLayer
 62
  256
370
   -1
100
AcDbPolyline
 90
   49
 70
    0
 43
0
 10
507
 20
318
 10
504
 20
318
 10
504
 20
328
 10
507
 20
328
 10
507
 20
338
 10
504
 20
338
 10
504
 20
348
 10
507
 20
348
 10
507
 20
358
 10
504
 20
358
 10
504
 20
368
 10
507
 20
368
 10
507
 20
378
 10
507
 20
381
 10
517
 20
381
 10
517
 20
378
 10
527
 20
378
 10
527
 20
381
 10
537
 20
381
 10
537
 20
378
 10
547
 20
378
 10
547
 20
381
 10
557
 20
381
 10
557
 20
378
 10
567
 20
378
 10
570
 20
378
 10
570
 20
368
 10
567
 20
368
 10
567
 20
358
 10
570
 20
358
 10
570
 20
348
 10
567
 20
348
 10
567
 20
338
 10
570
 20
338
 10
570
 20
328
 10
567
 20
328
 10
567
 20
318
 10
567
 20
315
 10
557
 20
315
 10
557
 20
318
 10
547
 20
318
 10
547
 20
315
 10
537
 20
315
 10
537
 20
318
 10
527
 20
318
 10
527
 20
315
 10
517
 20
315
 10
517
 20
318
 10
507
 20
318
  0
LWPOLYLINE
  5
BF
100
AcDbEntity
  8
0
  6
ByLayer
 62
  256
370
   -1
100
AcDbPolyline
 90
    5
 70
    0
 43
0
 10
406
 20
283
 10
416
 20
283
 10
416
 20
286
 10
406
 20
286
 10
406
 20
283
  0
LWPOLYLINE
  5
C0
100
AcDbEntity
  8
0
  6
ByLayer
 62
  256
370
   -1
100
AcDbPolyline
 90
    5
 70
    0
 43
0
 10
468
 20
281
 10
468
 20
289.4
 10
480.6
 20
289.4
 10
480.6
 20
281
 10
468
 20
281
  0
LWPOLYLINE
  5
C1
100
AcDbEntity
  8
0
  6
ByLayer
 62
  256
370
   -1
100
AcDbPolyline
 90
    5
 70
    0
 43
0
 10
532
 20
283
 10
542
 20
283
 10
542
 20
286
 10
532
 20
286
 10
532
 20
283
  0
CIRCLE
  5
C2
100
AcDbEntity
  8
0
  6
ByLayer
 62
  256
370
   -1
100
AcDbCircle
 10
461
 20
348
 40
9
  0
CIRCLE
  5
C3
100
AcDbEntity
  8
0
  6
ByLayer
 62
  256
370
   -1
100
AcDbCircle
 10
487
 20
348
 40
9
  0
MTEXT
  5
C4
100
AcDbEntity
  8
0
  6
DOT2
 62
  256
370
   -1
100
AcDbMText
 10
400
 20
219
 30
0
 40
30
 41
13.56666666666667
 71
    5
 72
    1
  1
6
  7
azomix
210
0
220
0
230
1
 50
0
 73
    2
 44
1
  0
MTEXT
  5
C5
100
AcDbEntity
  8
0
  6
DOT2
 62
  256
370
   -1
100
AcDbMText
 10
210
 20
344
 30
0
 40
30
 41
13.56666666666667
 71
    5
 72
    1
  1
8
  7
azomix
210
0
220
0
230
1
 50
0
 73
    2
 44
1
  0
MTEXT
  5
C6
100
AcDbEntity
  8
0
  6
DOT2
 62
  256
370
   -1
100
AcDbMText
 10
398
 20
345
 30
0
 40
30
 41
13.56666666666667
 71
    5
 72
    1
  1
9
  7
azomix
210
0
220
0
230
1
 50
0
 73
    2
 44
1
  0
MTEXT
  5
C7
100
AcDbEntity
  8
0
  6
DOT2
 62
  256
370
   -1
100
AcDbMText
 10
14
 20
92
 30
0
 40
30
 41
6.233333333333336
 71
    5
 72
    1
  1
1
  7
azomix
210
0
220
0
230
1
 50
0
 73
    2
 44
1
  0
MTEXT
  5
C8
100
AcDbEntity
  8
0
  6
DOT2
 62
  256
370
   -1
100
AcDbMText
 10
216.7833333333333
 20
95
 30
0
 40
30
 41
13.56666666666667
 71
    5
 72
    1
  1
2
  7
azomix
210
0
220
0
230
1
 50
0
 73
    2
 44
1
  0
MTEXT
  5
C9
100
AcDbEntity
  8
0
  6
DOT2
 62
  256
370
   -1
100
AcDbMText
 10
403
 20
94
 30
0
 40
30
 41
13.56666666666667
 71
    5
 72
    1
  1
3
  7
azomix
210
0
220
0
230
1
 50
0
 73
    2
 44
1
  0
MTEXT
  5
CA
100
AcDbEntity
  8
0
  6
DOT2
 62
  256
370
   -1
100
AcDbMText
 10
23
 20
223
 30
0
 40
30
 41
16.66666666666666
 71
    5
 72
    1
  1
4
  7
azomix
210
0
220
0
230
1
 50
0
 73
    2
 44
1
  0
MTEXT
  5
CB
100
AcDbEntity
  8
0
  6
DOT2
 62
  256
370
   -1
100
AcDbMText
 10
212
 20
220
 30
0
 40
30
 41
13.56666666666667
 71
    5
 72
    1
  1
5
  7
azomix
210
0
220
0
230
1
 50
0
 73
    2
 44
1
  0
MTEXT
  5
CC
100
AcDbEntity
  8
0
  6
DOT2
 62
  256
370
   -1
100
AcDbMText
 10
22
 20
345
 30
0
 40
30
 41
13.56666666666667
 71
    5
 72
    1
  1
7
  7
azomix
210
0
220
0
230
1
 50
0
 73
    2
 44
1
  0
LWPOLYLINE
  5
CD
100
AcDbEntity
  8
0
  6
ByLayer
 62
  256
370
   -1
100
AcDbPolyline
 90
    9
 70
    0
 43
0
 10
120
 20
460
 10
100
 20
460
 10
100
 20
450
 10
60
 20
450
 10
60
 20
480
 10
100
 20
480
 10
100
 20
470
 10
120
 20
470
 10
120
 20
460
  0
LWPOLYLINE
  5
CE
100
AcDbEntity
  8
0
  6
ByLayer
 62
  256
370
   -1
100
AcDbPolyline
 90
    3
 70
    0
 43
0
 10
95
 20
460
 10
90
 20
460
 10
90
 20
455
  0
LWPOLYLINE
  5
CF
100
AcDbEntity
  8
0
  6
ByLayer
 62
  256
370
   -1
100
AcDbPolyline
 90
    4
 70
    0
 43
0
 10
85
 20
460
 10
75
 20
460
 10
80
 20
460
 10
80
 20
455
  0
LWPOLYLINE
  5
D0
100
AcDbEntity
  8
0
  6
ByLayer
 62
  256
370
   -1
100
AcDbPolyline
 90
    2
 70
    0
 43
0
 10
80
 20
463
 10
80
 20
467
  0
LWPOLYLINE
  5
D1
100
AcDbEntity
  8
0
  6
ByLayer
 62
  256
370
   -1
100
AcDbPolyline
 90
    2
 70
    0
 43
0
 10
90
 20
463
 10
90
 20
467
  0
LWPOLYLINE
  5
D2
100
AcDbEntity
  8
0
  6
ByLayer
 62
  256
370
   -1
100
AcDbPolyline
 90
    3
 70
    0
 43
0
 10
95
 20
470
 10
90
 20
470
 10
90
 20
475
  0
LWPOLYLINE
  5
D3
100
AcDbEntity
  8
0
  6
ByLayer
 62
  256
370
   -1
100
AcDbPolyline
 90
    4
 70
    0
 43
0
 10
85
 20
470
 10
75
 20
470
 10
80
 20
470
 10
80
 20
475
  0
LWPOLYLINE
  5
D4
100
AcDbEntity
  8
0
  6
ByLayer
 62
  256
370
   -1
100
AcDbPolyline
 90
    3
 70
    0
 43
0
 10
70
 20
475
 10
70
 20
470
 10
65
 20
470
  0
LWPOLYLINE
  5
D5
100
AcDbEntity
  8
0
  6
ByLayer
 62
  256
370
   -1
100
AcDbPolyline
 90
    3
 70
    0
 43
0
 10
65
 20
460
 10
70
 20
460
 10
70
 20
455
  0
LWPOLYLINE
  5
D6
100
AcDbEntity
  8
0
  6
ByLayer
 62
  256
370
   -1
100
AcDbPolyline
 90
    2
 70
    0
 43
0
 10
70
 20
463
 10
70
 20
467
  0
LWPOLYLINE
  5
D7
100
AcDbEntity
  8
0
  6
ByLayer
 62
  256
370
   -1
100
AcDbPolyline
 90
    9
 70
    0
 43
0
 10
0
 20
470
 10
20
 20
470
 10
20
 20
480
 10
60
 20
480
 10
60
 20
450
 10
20
 20
450
 10
20
 20
460
 10
0
 20
460
 10
0
 20
470
  0
LWPOLYLINE
  5
D8
100
AcDbEntity
  8
0
  6
ByLayer
 62
  256
370
   -1
100
AcDbPolyline
 90
    3
 70
    0
 43
0
 10
25
 20
470
 10
30
 20
470
 10
30
 20
475
  0
LWPOLYLINE
  5
D9
100
AcDbEntity
  8
0
  6
ByLayer
 62
  256
370
   -1
100
AcDbPolyline
 90
    4
 70
    0
 43
0
 10
35
 20
470
 10
45
 20
470
 10
40
 20
470
 10
40
 20
475
  0
LWPOLYLINE
  5
DA
100
AcDbEntity
  8
0
  6
ByLayer
 62
  256
370
   -1
100
AcDbPolyline
 90
    2
 70
    0
 43
0
 10
40
 20
467
 10
40
 20
463
  0
LWPOLYLINE
  5
DB
100
AcDbEntity
  8
0
  6
ByLayer
 62
  256
370
   -1
100
AcDbPolyline
 90
    2
 70
    0
 43
0
 10
30
 20
467
 10
30
 20
463
  0
LWPOLYLINE
  5
DC
100
AcDbEntity
  8
0
  6
ByLayer
 62
  256
370
   -1
100
AcDbPolyline
 90
    3
 70
    0
 43
0
 10
25
 20
460
 10
30
 20
460
 10
30
 20
455
  0
LWPOLYLINE
  5
DD
100
AcDbEntity
  8
0
  6
ByLayer
 62
  256
370
   -1
100
AcDbPolyline
 90
    4
 70
    0
 43
0
 10
35
 20
460
 10
45
 20
460
 10
40
 20
460
 10
40
 20
455
  0
LWPOLYLINE
  5
DE
100
AcDbEntity
  8
0
  6
ByLayer
 62
  256
370
   -1
100
AcDbPolyline
 90
    3
 70
    0
 43
0
 10
50
 20
455
 10
50
 20
460
 10
55
 20
460
  0
LWPOLYLINE
  5
DF
100
AcDbEntity
  8
0
  6
ByLayer
 62
  256
370
   -1
100
AcDbPolyline
 90
    3
 70
    0
 43
0
 10
55
 20
470
 10
50
 20
470
 10
50
 20
475
  0
LWPOLYLINE
  5
E0
100
AcDbEntity
  8
0
  6
ByLayer
 62
  256
370
   -1
100
AcDbPolyline
 90
    2
 70
    0
 43
0
 10
50
 20
467
 10
50
 20
463
  0
LWPOLYLINE
  5
E1
100
AcDbEntity
  8
0
  6
ByLayer
 62
  256
370
   -1
100
AcDbPolyline
 90
    9
 70
    0
 43
0
 10
120
 20
430
 10
100
 20
430
 10
100
 20
420
 10
60
 20
420
 10
60
 20
450
 10
100
 20
450
 10
100
 20
440
 10
120
 20
440
 10
120
 20
430
  0
LWPOLYLINE
  5
E2
100
AcDbEntity
  8
0
  6
ByLayer
 62
  256
370
   -1
100
AcDbPolyline
 90
    3
 70
    0
 43
0
 10
95
 20
430
 10
90
 20
430
 10
90
 20
425
  0
LWPOLYLINE
  5
E3
100
AcDbEntity
  8
0
  6
ByLayer
 62
  256
370
   -1
100
AcDbPolyline
 90
    4
 70
    0
 43
0
 10
85
 20
430
 10
75
 20
430
 10
80
 20
430
 10
80
 20
425
  0
LWPOLYLINE
  5
E4
100
AcDbEntity
  8
0
  6
ByLayer
 62
  256
370
   -1
100
AcDbPolyline
 90
    2
 70
    0
 43
0
 10
80
 20
433
 10
80
 20
437
  0
LWPOLYLINE
  5
E5
100
AcDbEntity
  8
0
  6
ByLayer
 62
  256
370
   -1
100
AcDbPolyline
 90
    2
 70
    0
 43
0
 10
90
 20
433
 10
90
 20
437
  0
LWPOLYLINE
  5
E6
100
AcDbEntity
  8
0
  6
ByLayer
 62
  256
370
   -1
100
AcDbPolyline
 90
    3
 70
    0
 43
0
 10
95
 20
440
 10
90
 20
440
 10
90
 20
445
  0
LWPOLYLINE
  5
E7
100
AcDbEntity
  8
0
  6
ByLayer
 62
  256
370
   -1
100
AcDbPolyline
 90
    4
 70
    0
 43
0
 10
85
 20
440
 10
75
 20
440
 10
80
 20
440
 10
80
 20
445
  0
LWPOLYLINE
  5
E8
100
AcDbEntity
  8
0
  6
ByLayer
 62
  256
370
   -1
100
AcDbPolyline
 90
    3
 70
    0
 43
0
 10
70
 20
445
 10
70
 20
440
 10
65
 20
440
  0
LWPOLYLINE
  5
E9
100
AcDbEntity
  8
0
  6
ByLayer
 62
  256
370
   -1
100
AcDbPolyline
 90
    3
 70
    0
 43
0
 10
65
 20
430
 10
70
 20
430
 10
70
 20
425
  0
LWPOLYLINE
  5
EA
100
AcDbEntity
  8
0
  6
ByLayer
 62
  256
370
   -1
100
AcDbPolyline
 90
    2
 70
    0
 43
0
 10
70
 20
433
 10
70
 20
437
  0
LWPOLYLINE
  5
EB
100
AcDbEntity
  8
0
  6
ByLayer
 62
  256
370
   -1
100
AcDbPolyline
 90
    9
 70
    0
 43
0
 10
0
 20
440
 10
20
 20
440
 10
20
 20
450
 10
60
 20
450
 10
60
 20
420
 10
20
 20
420
 10
20
 20
430
 10
0
 20
430
 10
0
 20
440
  0
LWPOLYLINE
  5
EC
100
AcDbEntity
  8
0
  6
ByLayer
 62
  256
370
   -1
100
AcDbPolyline
 90
    3
 70
    0
 43
0
 10
25
 20
440
 10
30
 20
440
 10
30
 20
445
  0
LWPOLYLINE
  5
ED
100
AcDbEntity
  8
0
  6
ByLayer
 62
  256
370
   -1
100
AcDbPolyline
 90
    4
 70
    0
 43
0
 10
35
 20
440
 10
45
 20
440
 10
40
 20
440
 10
40
 20
445
  0
LWPOLYLINE
  5
EE
100
AcDbEntity
  8
0
  6
ByLayer
 62
  256
370
   -1
100
AcDbPolyline
 90
    2
 70
    0
 43
0
 10
40
 20
437
 10
40
 20
433
  0
LWPOLYLINE
  5
EF
100
AcDbEntity
  8
0
  6
ByLayer
 62
  256
370
   -1
100
AcDbPolyline
 90
    2
 70
    0
 43
0
 10
30
 20
437
 10
30
 20
433
  0
LWPOLYLINE
  5
F0
100
AcDbEntity
  8
0
  6
ByLayer
 62
  256
370
   -1
100
AcDbPolyline
 90
    3
 70
    0
 43
0
 10
25
 20
430
 10
30
 20
430
 10
30
 20
425
  0
LWPOLYLINE
  5
F1
100
AcDbEntity
  8
0
  6
ByLayer
 62
  256
370
   -1
100
AcDbPolyline
 90
    4
 70
    0
 43
0
 10
35
 20
430
 10
45
 20
430
 10
40
 20
430
 10
40
 20
425
  0
LWPOLYLINE
  5
F2
100
AcDbEntity
  8
0
  6
ByLayer
 62
  256
370
   -1
100
AcDbPolyline
 90
    3
 70
    0
 43
0
 10
50
 20
425
 10
50
 20
430
 10
55
 20
430
  0
LWPOLYLINE
  5
F3
100
AcDbEntity
  8
0
  6
ByLayer
 62
  256
370
   -1
100
AcDbPolyline
 90
    3
 70
    0
 43
0
 10
55
 20
440
 10
50
 20
440
 10
50
 20
445
  0
LWPOLYLINE
  5
F4
100
AcDbEntity
  8
0
  6
ByLayer
 62
  256
370
   -1
100
AcDbPolyline
 90
    2
 70
    0
 43
0
 10
50
 20
437
 10
50
 20
433
  0
LWPOLYLINE
  5
F5
100
AcDbEntity
  8
0
  6
ByLayer
 62
  256
370
   -1
100
AcDbPolyline
 90
    9
 70
    0
 43
0
 10
120
 20
400
 10
100
 20
400
 10
100
 20
390
 10
60
 20
390
 10
60
 20
420
 10
100
 20
420
 10
100
 20
410
 10
120
 20
410
 10
120
 20
400
  0
LWPOLYLINE
  5
F6
100
AcDbEntity
  8
0
  6
ByLayer
 62
  256
370
   -1
100
AcDbPolyline
 90
    3
 70
    0
 43
0
 10
95
 20
400
 10
90
 20
400
 10
90
 20
395
  0
LWPOLYLINE
  5
F7
100
AcDbEntity
  8
0
  6
ByLayer
 62
  256
370
   -1
100
AcDbPolyline
 90
    4
 70
    0
 43
0
 10
85
 20
400
 10
75
 20
400
 10
80
 20
400
 10
80
 20
395
  0
LWPOLYLINE
  5
F8
100
AcDbEntity
  8
0
  6
ByLayer
 62
  256
370
   -1
100
AcDbPolyline
 90
    2
 70
    0
 43
0
 10
80
 20
403
 10
80
 20
407
  0
LWPOLYLINE
  5
F9
100
AcDbEntity
  8
0
  6
ByLayer
 62
  256
370
   -1
100
AcDbPolyline
 90
    2
 70
    0
 43
0
 10
90
 20
403
 10
90
 20
407
  0
LWPOLYLINE
  5
FA
100
AcDbEntity
  8
0
  6
ByLayer
 62
  256
370
   -1
100
AcDbPolyline
 90
    3
 70
    0
 43
0
 10
95
 20
410
 10
90
 20
410
 10
90
 20
415
  0
LWPOLYLINE
  5
FB
100
AcDbEntity
  8
0
  6
ByLayer
 62
  256
370
   -1
100
AcDbPolyline
 90
    4
 70
    0
 43
0
 10
85
 20
410
 10
75
 20
410
 10
80
 20
410
 10
80
 20
415
  0
LWPOLYLINE
  5
FC
100
AcDbEntity
  8
0
  6
ByLayer
 62
  256
370
   -1
100
AcDbPolyline
 90
    3
 70
    0
 43
0
 10
70
 20
415
 10
70
 20
410
 10
65
 20
410
  0
LWPOLYLINE
  5
FD
100
AcDbEntity
  8
0
  6
ByLayer
 62
  256
370
   -1
100
AcDbPolyline
 90
    3
 70
    0
 43
0
 10
65
 20
400
 10
70
 20
400
 10
70
 20
395
  0
LWPOLYLINE
  5
FE
100
AcDbEntity
  8
0
  6
ByLayer
 62
  256
370
   -1
100
AcDbPolyline
 90
    2
 70
    0
 43
0
 10
70
 20
403
 10
70
 20
407
  0
LWPOLYLINE
  5
FF
100
AcDbEntity
  8
0
  6
ByLayer
 62
  256
370
   -1
100
AcDbPolyline
 90
    9
 70
    0
 43
0
 10
0
 20
410
 10
20
 20
410
 10
20
 20
420
 10
60
 20
420
 10
60
 20
390
 10
20
 20
390
 10
20
 20
400
 10
0
 20
400
 10
0
 20
410
  0
LWPOLYLINE
  5
100
100
AcDbEntity
  8
0
  6
ByLayer
 62
  256
370
   -1
100
AcDbPolyline
 90
    3
 70
    0
 43
0
 10
25
 20
410
 10
30
 20
410
 10
30
 20
415
  0
LWPOLYLINE
  5
101
100
AcDbEntity
  8
0
  6
ByLayer
 62
  256
370
   -1
100
AcDbPolyline
 90
    4
 70
    0
 43
0
 10
35
 20
410
 10
45
 20
410
 10
40
 20
410
 10
40
 20
415
  0
LWPOLYLINE
  5
102
100
AcDbEntity
  8
0
  6
ByLayer
 62
  256
370
   -1
100
AcDbPolyline
 90
    2
 70
    0
 43
0
 10
40
 20
407
 10
40
 20
403
  0
LWPOLYLINE
  5
103
100
AcDbEntity
  8
0
  6
ByLayer
 62
  256
370
   -1
100
AcDbPolyline
 90
    2
 70
    0
 43
0
 10
30
 20
407
 10
30
 20
403
  0
LWPOLYLINE
  5
104
100
AcDbEntity
  8
0
  6
ByLayer
 62
  256
370
   -1
100
AcDbPolyline
 90
    3
 70
    0
 43
0
 10
25
 20
400
 10
30
 20
400
 10
30
 20
395
  0
LWPOLYLINE
  5
105
100
AcDbEntity
  8
0
  6
ByLayer
 62
  256
370
   -1
100
AcDbPolyline
 90
    4
 70
    0
 43
0
 10
35
 20
400
 10
45
 20
400
 10
40
 20
400
 10
40
 20
395
  0
LWPOLYLINE
  5
106
100
AcDbEntity
  8
0
  6
ByLayer
 62
  256
370
   -1
100
AcDbPolyline
 90
    3
 70
    0
 43
0
 10
50
 20
395
 10
50
 20
400
 10
55
 20
400
  0
LWPOLYLINE
  5
107
100
AcDbEntity
  8
0
  6
ByLayer
 62
  256
370
   -1
100
AcDbPolyline
 90
    3
 70
    0
 43
0
 10
55
 20
410
 10
50
 20
410
 10
50
 20
415
  0
LWPOLYLINE
  5
108
100
AcDbEntity
  8
0
  6
ByLayer
 62
  256
370
   -1
100
AcDbPolyline
 90
    2
 70
    0
 43
0
 10
50
 20
407
 10
50
 20
403
  0
LWPOLYLINE
  5
109
100
AcDbEntity
  8
0
  6
ByLayer
 62
  256
370
   -1
100
AcDbPolyline
 90
    9
 70
    0
 43
0
 10
240
 20
460
 10
220
 20
460
 10
220
 20
450
 10
180
 20
450
 10
180
 20
480
 10
220
 20
480
 10
220
 20
470
 10
240
 20
470
 10
240
 20
460
  0
LWPOLYLINE
  5
10A
100
AcDbEntity
  8
0
  6
ByLayer
 62
  256
370
   -1
100
AcDbPolyline
 90
    3
 70
    0
 43
0
 10
215
 20
460
 10
210
 20
460
 10
210
 20
455
  0
LWPOLYLINE
  5
10B
100
AcDbEntity
  8
0
  6
ByLayer
 62
  256
370
   -1
100
AcDbPolyline
 90
    4
 70
    0
 43
0
 10
205
 20
460
 10
195
 20
460
 10
200
 20
460
 10
200
 20
455
  0
LWPOLYLINE
  5
10C
100
AcDbEntity
  8
0
  6
ByLayer
 62
  256
370
   -1
100
AcDbPolyline
 90
    2
 70
    0
 43
0
 10
200
 20
463
 10
200
 20
467
  0
LWPOLYLINE
  5
10D
100
AcDbEntity
  8
0
  6
ByLayer
 62
  256
370
   -1
100
AcDbPolyline
 90
    2
 70
    0
 43
0
 10
210
 20
463
 10
210
 20
467
  0
LWPOLYLINE
  5
10E
100
AcDbEntity
  8
0
  6
ByLayer
 62
  256
370
   -1
100
AcDbPolyline
 90
    3
 70
    0
 43
0
 10
215
 20
470
 10
210
 20
470
 10
210
 20
475
  0
LWPOLYLINE
  5
10F
100
AcDbEntity
  8
0
  6
ByLayer
 62
  256
370
   -1
100
AcDbPolyline
 90
    4
 70
    0
 43
0
 10
205
 20
470
 10
195
 20
470
 10
200
 20
470
 10
200
 20
475
  0
LWPOLYLINE
  5
110
100
AcDbEntity
  8
0
  6
ByLayer
 62
  256
370
   -1
100
AcDbPolyline
 90
    3
 70
    0
 43
0
 10
190
 20
475
 10
190
 20
470
 10
185
 20
470
  0
LWPOLYLINE
  5
111
100
AcDbEntity
  8
0
  6
ByLayer
 62
  256
370
   -1
100
AcDbPolyline
 90
    3
 70
    0
 43
0
 10
185
 20
460
 10
190
 20
460
 10
190
 20
455
  0
LWPOLYLINE
  5
112
100
AcDbEntity
  8
0
  6
ByLayer
 62
  256
370
   -1
100
AcDbPolyline
 90
    2
 70
    0
 43
0
 10
190
 20
463
 10
190
 20
467
  0
LWPOLYLINE
  5
113
100
AcDbEntity
  8
0
  6
ByLayer
 62
  256
370
   -1
100
AcDbPolyline
 90
    9
 70
    0
 43
0
 10
120
 20
470
 10
140
 20
470
 10
140
 20
480
 10
180
 20
480
 10
180
 20
450
 10
140
 20
450
 10
140
 20
460
 10
120
 20
460
 10
120
 20
470
  0
LWPOLYLINE
  5
114
100
AcDbEntity
  8
0
  6
ByLayer
 62
  256
370
   -1
100
AcDbPolyline
 90
    3
 70
    0
 43
0
 10
145
 20
470
 10
150
 20
470
 10
150
 20
475
  0
LWPOLYLINE
  5
115
100
AcDbEntity
  8
0
  6
ByLayer
 62
  256
370
   -1
100
AcDbPolyline
 90
    4
 70
    0
 43
0
 10
155
 20
470
 10
165
 20
470
 10
160
 20
470
 10
160
 20
475
  0
LWPOLYLINE
  5
116
100
AcDbEntity
  8
0
  6
ByLayer
 62
  256
370
   -1
100
AcDbPolyline
 90
    2
 70
    0
 43
0
 10
160
 20
467
 10
160
 20
463
  0
LWPOLYLINE
  5
117
100
AcDbEntity
  8
0
  6
ByLayer
 62
  256
370
   -1
100
AcDbPolyline
 90
    2
 70
    0
 43
0
 10
150
 20
467
 10
150
 20
463
  0
LWPOLYLINE
  5
118
100
AcDbEntity
  8
0
  6
ByLayer
 62
  256
370
   -1
100
AcDbPolyline
 90
    3
 70
    0
 43
0
 10
145
 20
460
 10
150
 20
460
 10
150
 20
455
  0
LWPOLYLINE
  5
119
100
AcDbEntity
  8
0
  6
ByLayer
 62
  256
370
   -1
100
AcDbPolyline
 90
    4
 70
    0
 43
0
 10
155
 20
460
 10
165
 20
460
 10
160
 20
460
 10
160
 20
455
  0
LWPOLYLINE
  5
11A
100
AcDbEntity
  8
0
  6
ByLayer
 62
  256
370
   -1
100
AcDbPolyline
 90
    3
 70
    0
 43
0
 10
170
 20
455
 10
170
 20
460
 10
175
 20
460
  0
LWPOLYLINE
  5
11B
100
AcDbEntity
  8
0
  6
ByLayer
 62
  256
370
   -1
100
AcDbPolyline
 90
    3
 70
    0
 43
0
 10
175
 20
470
 10
170
 20
470
 10
170
 20
475
  0
LWPOLYLINE
  5
11C
100
AcDbEntity
  8
0
  6
ByLayer
 62
  256
370
   -1
100
AcDbPolyline
 90
    2
 70
    0
 43
0
 10
170
 20
467
 10
170
 20
463
  0
LWPOLYLINE
  5
11D
100
AcDbEntity
  8
0
  6
ByLayer
 62
  256
370
   -1
100
AcDbPolyline
 90
    9
 70
    0
 43
0
 10
240
 20
430
 10
220
 20
430
 10
220
 20
420
 10
180
 20
420
 10
180
 20
450
 10
220
 20
450
 10
220
 20
440
 10
240
 20
440
 10
240
 20
430
  0
LWPOLYLINE
  5
11E
100
AcDbEntity
  8
0
  6
ByLayer
 62
  256
370
   -1
100
AcDbPolyline
 90
    3
 70
    0
 43
0
 10
215
 20
430
 10
210
 20
430
 10
210
 20
425
  0
LWPOLYLINE
  5
11F
100
AcDbEntity
  8
0
  6
ByLayer
 62
  256
370
   -1
100
AcDbPolyline
 90
    4
 70
    0
 43
0
 10
205
 20
430
 10
195
 20
430
 10
200
 20
430
 10
200
 20
425
  0
LWPOLYLINE
  5
120
100
AcDbEntity
  8
0
  6
ByLayer
 62
  256
370
   -1
100
AcDbPolyline
 90
    2
 70
    0
 43
0
 10
200
 20
433
 10
200
 20
437
  0
LWPOLYLINE
  5
121
100
AcDbEntity
  8
0
  6
ByLayer
 62
  256
370
   -1
100
AcDbPolyline
 90
    2
 70
    0
 43
0
 10
210
 20
433
 10
210
 20
437
  0
LWPOLYLINE
  5
122
100
AcDbEntity
  8
0
  6
ByLayer
 62
  256
370
   -1
100
AcDbPolyline
 90
    3
 70
    0
 43
0
 10
215
 20
440
 10
210
 20
440
 10
210
 20
445
  0
LWPOLYLINE
  5
123
100
AcDbEntity
  8
0
  6
ByLayer
 62
  256
370
   -1
100
AcDbPolyline
 90
    4
 70
    0
 43
0
 10
205
 20
440
 10
195
 20
440
 10
200
 20
440
 10
200
 20
445
  0
LWPOLYLINE
  5
124
100
AcDbEntity
  8
0
  6
ByLayer
 62
  256
370
   -1
100
AcDbPolyline
 90
    3
 70
    0
 43
0
 10
190
 20
445
 10
190
 20
440
 10
185
 20
440
  0
LWPOLYLINE
  5
125
100
AcDbEntity
  8
0
  6
ByLayer
 62
  256
370
   -1
100
AcDbPolyline
 90
    3
 70
    0
 43
0
 10
185
 20
430
 10
190
 20
430
 10
190
 20
425
  0
LWPOLYLINE
  5
126
100
AcDbEntity
  8
0
  6
ByLayer
 62
  256
370
   -1
100
AcDbPolyline
 90
    2
 70
    0
 43
0
 10
190
 20
433
 10
190
 20
437
  0
LWPOLYLINE
  5
127
100
AcDbEntity
  8
0
  6
ByLayer
 62
  256
370
   -1
100
AcDbPolyline
 90
    9
 70
    0
 43
0
 10
120
 20
440
 10
140
 20
440
 10
140
 20
450
 10
180
 20
450
 10
180
 20
420
 10
140
 20
420
 10
140
 20
430
 10
120
 20
430
 10
120
 20
440
  0
LWPOLYLINE
  5
128
100
AcDbEntity
  8
0
  6
ByLayer
 62
  256
370
   -1
100
AcDbPolyline
 90
    3
 70
    0
 43
0
 10
145
 20
440
 10
150
 20
440
 10
150
 20
445
  0
LWPOLYLINE
  5
129
100
AcDbEntity
  8
0
  6
ByLayer
 62
  256
370
   -1
100
AcDbPolyline
 90
    4
 70
    0
 43
0
 10
155
 20
440
 10
165
 20
440
 10
160
 20
440
 10
160
 20
445
  0
LWPOLYLINE
  5
12A
100
AcDbEntity
  8
0
  6
ByLayer
 62
  256
370
   -1
100
AcDbPolyline
 90
    2
 70
    0
 43
0
 10
160
 20
437
 10
160
 20
433
  0
LWPOLYLINE
  5
12B
100
AcDbEntity
  8
0
  6
ByLayer
 62
  256
370
   -1
100
AcDbPolyline
 90
    2
 70
    0
 43
0
 10
150
 20
437
 10
150
 20
433
  0
LWPOLYLINE
  5
12C
100
AcDbEntity
  8
0
  6
ByLayer
 62
  256
370
   -1
100
AcDbPolyline
 90
    3
 70
    0
 43
0
 10
145
 20
430
 10
150
 20
430
 10
150
 20
425
  0
LWPOLYLINE
  5
12D
100
AcDbEntity
  8
0
  6
ByLayer
 62
  256
370
   -1
100
AcDbPolyline
 90
    4
 70
    0
 43
0
 10
155
 20
430
 10
165
 20
430
 10
160
 20
430
 10
160
 20
425
  0
LWPOLYLINE
  5
12E
100
AcDbEntity
  8
0
  6
ByLayer
 62
  256
370
   -1
100
AcDbPolyline
 90
    3
 70
    0
 43
0
 10
170
 20
425
 10
170
 20
430
 10
175
 20
430
  0
LWPOLYLINE
  5
12F
100
AcDbEntity
  8
0
  6
ByLayer
 62
  256
370
   -1
100
AcDbPolyline
 90
    3
 70
    0
 43
0
 10
175
 20
440
 10
170
 20
440
 10
170
 20
445
  0
LWPOLYLINE
  5
130
100
AcDbEntity
  8
0
  6
ByLayer
 62
  256
370
   -1
100
AcDbPolyline
 90
    2
 70
    0
 43
0
 10
170
 20
437
 10
170
 20
433
  0
LWPOLYLINE
  5
131
100
AcDbEntity
  8
0
  6
ByLayer
 62
  256
370
   -1
100
AcDbPolyline
 90
    9
 70
    0
 43
0
 10
240
 20
400
 10
220
 20
400
 10
220
 20
390
 10
180
 20
390
 10
180
 20
420
 10
220
 20
420
 10
220
 20
410
 10
240
 20
410
 10
240
 20
400
  0
LWPOLYLINE
  5
132
100
AcDbEntity
  8
0
  6
ByLayer
 62
  256
370
   -1
100
AcDbPolyline
 90
    3
 70
    0
 43
0
 10
215
 20
400
 10
210
 20
400
 10
210
 20
395
  0
LWPOLYLINE
  5
133
100
AcDbEntity
  8
0
  6
ByLayer
 62
  256
370
   -1
100
AcDbPolyline
 90
    4
 70
    0
 43
0
 10
205
 20
400
 10
195
 20
400
 10
200
 20
400
 10
200
 20
395
  0
LWPOLYLINE
  5
134
100
AcDbEntity
  8
0
  6
ByLayer
 62
  256
370
   -1
100
AcDbPolyline
 90
    2
 70
    0
 43
0
 10
200
 20
403
 10
200
 20
407
  0
LWPOLYLINE
  5
135
100
AcDbEntity
  8
0
  6
ByLayer
 62
  256
370
   -1
100
AcDbPolyline
 90
    2
 70
    0
 43
0
 10
210
 20
403
 10
210
 20
407
  0
LWPOLYLINE
  5
136
100
AcDbEntity
  8
0
  6
ByLayer
 62
  256
370
   -1
100
AcDbPolyline
 90
    3
 70
    0
 43
0
 10
215
 20
410
 10
210
 20
410
 10
210
 20
415
  0
LWPOLYLINE
  5
137
100
AcDbEntity
  8
0
  6
ByLayer
 62
  256
370
   -1
100
AcDbPolyline
 90
    4
 70
    0
 43
0
 10
205
 20
410
 10
195
 20
410
 10
200
 20
410
 10
200
 20
415
  0
LWPOLYLINE
  5
138
100
AcDbEntity
  8
0
  6
ByLayer
 62
  256
370
   -1
100
AcDbPolyline
 90
    3
 70
    0
 43
0
 10
190
 20
415
 10
190
 20
410
 10
185
 20
410
  0
LWPOLYLINE
  5
139
100
AcDbEntity
  8
0
  6
ByLayer
 62
  256
370
   -1
100
AcDbPolyline
 90
    3
 70
    0
 43
0
 10
185
 20
400
 10
190
 20
400
 10
190
 20
395
  0
LWPOLYLINE
  5
13A
100
AcDbEntity
  8
0
  6
ByLayer
 62
  256
370
   -1
100
AcDbPolyline
 90
    2
 70
    0
 43
0
 10
190
 20
403
 10
190
 20
407
  0
LWPOLYLINE
  5
13B
100
AcDbEntity
  8
0
  6
ByLayer
 62
  256
370
   -1
100
AcDbPolyline
 90
    9
 70
    0
 43
0
 10
120
 20
410
 10
140
 20
410
 10
140
 20
420
 10
180
 20
420
 10
180
 20
390
 10
140
 20
390
 10
140
 20
400
 10
120
 20
400
 10
120
 20
410
  0
LWPOLYLINE
  5
13C
100
AcDbEntity
  8
0
  6
ByLayer
 62
  256
370
   -1
100
AcDbPolyline
 90
    3
 70
    0
 43
0
 10
145
 20
410
 10
150
 20
410
 10
150
 20
415
  0
LWPOLYLINE
  5
13D
100
AcDbEntity
  8
0
  6
ByLayer
 62
  256
370
   -1
100
AcDbPolyline
 90
    4
 70
    0
 43
0
 10
155
 20
410
 10
165
 20
410
 10
160
 20
410
 10
160
 20
415
  0
LWPOLYLINE
  5
13E
100
AcDbEntity
  8
0
  6
ByLayer
 62
  256
370
   -1
100
AcDbPolyline
 90
    2
 70
    0
 43
0
 10
160
 20
407
 10
160
 20
403
  0
LWPOLYLINE
  5
13F
100
AcDbEntity
  8
0
  6
ByLayer
 62
  256
370
   -1
100
AcDbPolyline
 90
    2
 70
    0
 43
0
 10
150
 20
407
 10
150
 20
403
  0
LWPOLYLINE
  5
140
100
AcDbEntity
  8
0
  6
ByLayer
 62
  256
370
   -1
100
AcDbPolyline
 90
    3
 70
    0
 43
0
 10
145
 20
400
 10
150
 20
400
 10
150
 20
395
  0
LWPOLYLINE
  5
141
100
AcDbEntity
  8
0
  6
ByLayer
 62
  256
370
   -1
100
AcDbPolyline
 90
    4
 70
    0
 43
0
 10
155
 20
400
 10
165
 20
400
 10
160
 20
400
 10
160
 20
395
  0
LWPOLYLINE
  5
142
100
AcDbEntity
  8
0
  6
ByLayer
 62
  256
370
   -1
100
AcDbPolyline
 90
    3
 70
    0
 43
0
 10
170
 20
395
 10
170
 20
400
 10
175
 20
400
  0
LWPOLYLINE
  5
143
100
AcDbEntity
  8
0
  6
ByLayer
 62
  256
370
   -1
100
AcDbPolyline
 90
    3
 70
    0
 43
0
 10
175
 20
410
 10
170
 20
410
 10
170
 20
415
  0
LWPOLYLINE
  5
144
100
AcDbEntity
  8
0
  6
ByLayer
 62
  256
370
   -1
100
AcDbPolyline
 90
    2
 70
    0
 43
0
 10
170
 20
407
 10
170
 20
403
  0
LWPOLYLINE
  5
145
100
AcDbEntity
  8
0
  6
ByLayer
 62
  256
370
   -1
100
AcDbPolyline
 90
    9
 70
    0
 43
0
 10
360
 20
460
 10
340
 20
460
 10
340
 20
450
 10
300
 20
450
 10
300
 20
480
 10
340
 20
480
 10
340
 20
470
 10
360
 20
470
 10
360
 20
460
  0
LWPOLYLINE
  5
146
100
AcDbEntity
  8
0
  6
ByLayer
 62
  256
370
   -1
100
AcDbPolyline
 90
    3
 70
    0
 43
0
 10
335
 20
460
 10
330
 20
460
 10
330
 20
455
  0
LWPOLYLINE
  5
147
100
AcDbEntity
  8
0
  6
ByLayer
 62
  256
370
   -1
100
AcDbPolyline
 90
    4
 70
    0
 43
0
 10
325
 20
460
 10
315
 20
460
 10
320
 20
460
 10
320
 20
455
  0
LWPOLYLINE
  5
148
100
AcDbEntity
  8
0
  6
ByLayer
 62
  256
370
   -1
100
AcDbPolyline
 90
    2
 70
    0
 43
0
 10
320
 20
463
 10
320
 20
467
  0
LWPOLYLINE
  5
149
100
AcDbEntity
  8
0
  6
ByLayer
 62
  256
370
   -1
100
AcDbPolyline
 90
    2
 70
    0
 43
0
 10
330
 20
463
 10
330
 20
467
  0
LWPOLYLINE
  5
14A
100
AcDbEntity
  8
0
  6
ByLayer
 62
  256
370
   -1
100
AcDbPolyline
 90
    3
 70
    0
 43
0
 10
335
 20
470
 10
330
 20
470
 10
330
 20
475
  0
LWPOLYLINE
  5
14B
100
AcDbEntity
  8
0
  6
ByLayer
 62
  256
370
   -1
100
AcDbPolyline
 90
    4
 70
    0
 43
0
 10
325
 20
470
 10
315
 20
470
 10
320
 20
470
 10
320
 20
475
  0
LWPOLYLINE
  5
14C
100
AcDbEntity
  8
0
  6
ByLayer
 62
  256
370
   -1
100
AcDbPolyline
 90
    3
 70
    0
 43
0
 10
310
 20
475
 10
310
 20
470
 10
305
 20
470
  0
LWPOLYLINE
  5
14D
100
AcDbEntity
  8
0
  6
ByLayer
 62
  256
370
   -1
100
AcDbPolyline
 90
    3
 70
    0
 43
0
 10
305
 20
460
 10
310
 20
460
 10
310
 20
455
  0
LWPOLYLINE
  5
14E
100
AcDbEntity
  8
0
  6
ByLayer
 62
  256
370
   -1
100
AcDbPolyline
 90
    2
 70
    0
 43
0
 10
310
 20
463
 10
310
 20
467
  0
LWPOLYLINE
  5
14F
100
AcDbEntity
  8
0
  6
ByLayer
 62
  256
370
   -1
100
AcDbPolyline
 90
    9
 70
    0
 43
0
 10
240
 20
470
 10
260
 20
470
 10
260
 20
480
 10
300
 20
480
 10
300
 20
450
 10
260
 20
450
 10
260
 20
460
 10
240
 20
460
 10
240
 20
470
  0
LWPOLYLINE
  5
150
100
AcDbEntity
  8
0
  6
ByLayer
 62
  256
370
   -1
100
AcDbPolyline
 90
    3
 70
    0
 43
0
 10
265
 20
470
 10
270
 20
470
 10
270
 20
475
  0
LWPOLYLINE
  5
151
100
AcDbEntity
  8
0
  6
ByLayer
 62
  256
370
   -1
100
AcDbPolyline
 90
    4
 70
    0
 43
0
 10
275
 20
470
 10
285
 20
470
 10
280
 20
470
 10
280
 20
475
  0
LWPOLYLINE
  5
152
100
AcDbEntity
  8
0
  6
ByLayer
 62
  256
370
   -1
100
AcDbPolyline
 90
    2
 70
    0
 43
0
 10
280
 20
467
 10
280
 20
463
  0
LWPOLYLINE
  5
153
100
AcDbEntity
  8
0
  6
ByLayer
 62
  256
370
   -1
100
AcDbPolyline
 90
    2
 70
    0
 43
0
 10
270
 20
467
 10
270
 20
463
  0
LWPOLYLINE
  5
154
100
AcDbEntity
  8
0
  6
ByLayer
 62
  256
370
   -1
100
AcDbPolyline
 90
    3
 70
    0
 43
0
 10
265
 20
460
 10
270
 20
460
 10
270
 20
455
  0
LWPOLYLINE
  5
155
100
AcDbEntity
  8
0
  6
ByLayer
 62
  256
370
   -1
100
AcDbPolyline
 90
    4
 70
    0
 43
0
 10
275
 20
460
 10
285
 20
460
 10
280
 20
460
 10
280
 20
455
  0
LWPOLYLINE
  5
156
100
AcDbEntity
  8
0
  6
ByLayer
 62
  256
370
   -1
100
AcDbPolyline
 90
    3
 70
    0
 43
0
 10
290
 20
455
 10
290
 20
460
 10
295
 20
460
  0
LWPOLYLINE
  5
157
100
AcDbEntity
  8
0
  6
ByLayer
 62
  256
370
   -1
100
AcDbPolyline
 90
    3
 70
    0
 43
0
 10
295
 20
470
 10
290
 20
470
 10
290
 20
475
  0
LWPOLYLINE
  5
158
100
AcDbEntity
  8
0
  6
ByLayer
 62
  256
370
   -1
100
AcDbPolyline
 90
    2
 70
    0
 43
0
 10
290
 20
467
 10
290
 20
463
  0
LWPOLYLINE
  5
159
100
AcDbEntity
  8
0
  6
ByLayer
 62
  256
370
   -1
100
AcDbPolyline
 90
    9
 70
    0
 43
0
 10
360
 20
430
 10
340
 20
430
 10
340
 20
420
 10
300
 20
420
 10
300
 20
450
 10
340
 20
450
 10
340
 20
440
 10
360
 20
440
 10
360
 20
430
  0
LWPOLYLINE
  5
15A
100
AcDbEntity
  8
0
  6
ByLayer
 62
  256
370
   -1
100
AcDbPolyline
 90
    3
 70
    0
 43
0
 10
335
 20
430
 10
330
 20
430
 10
330
 20
425
  0
LWPOLYLINE
  5
15B
100
AcDbEntity
  8
0
  6
ByLayer
 62
  256
370
   -1
100
AcDbPolyline
 90
    4
 70
    0
 43
0
 10
325
 20
430
 10
315
 20
430
 10
320
 20
430
 10
320
 20
425
  0
LWPOLYLINE
  5
15C
100
AcDbEntity
  8
0
  6
ByLayer
 62
  256
370
   -1
100
AcDbPolyline
 90
    2
 70
    0
 43
0
 10
320
 20
433
 10
320
 20
437
  0
LWPOLYLINE
  5
15D
100
AcDbEntity
  8
0
  6
ByLayer
 62
  256
370
   -1
100
AcDbPolyline
 90
    2
 70
    0
 43
0
 10
330
 20
433
 10
330
 20
437
  0
LWPOLYLINE
  5
15E
100
AcDbEntity
  8
0
  6
ByLayer
 62
  256
370
   -1
100
AcDbPolyline
 90
    3
 70
    0
 43
0
 10
335
 20
440
 10
330
 20
440
 10
330
 20
445
  0
LWPOLYLINE
  5
15F
100
AcDbEntity
  8
0
  6
ByLayer
 62
  256
370
   -1
100
AcDbPolyline
 90
    4
 70
    0
 43
0
 10
325
 20
440
 10
315
 20
440
 10
320
 20
440
 10
320
 20
445
  0
LWPOLYLINE
  5
160
100
AcDbEntity
  8
0
  6
ByLayer
 62
  256
370
   -1
100
AcDbPolyline
 90
    3
 70
    0
 43
0
 10
310
 20
445
 10
310
 20
440
 10
305
 20
440
  0
LWPOLYLINE
  5
161
100
AcDbEntity
  8
0
  6
ByLayer
 62
  256
370
   -1
100
AcDbPolyline
 90
    3
 70
    0
 43
0
 10
305
 20
430
 10
310
 20
430
 10
310
 20
425
  0
LWPOLYLINE
  5
162
100
AcDbEntity
  8
0
  6
ByLayer
 62
  256
370
   -1
100
AcDbPolyline
 90
    2
 70
    0
 43
0
 10
310
 20
433
 10
310
 20
437
  0
LWPOLYLINE
  5
163
100
AcDbEntity
  8
0
  6
ByLayer
 62
  256
370
   -1
100
AcDbPolyline
 90
    9
 70
    0
 43
0
 10
240
 20
440
 10
260
 20
440
 10
260
 20
450
 10
300
 20
450
 10
300
 20
420
 10
260
 20
420
 10
260
 20
430
 10
240
 20
430
 10
240
 20
440
  0
LWPOLYLINE
  5
164
100
AcDbEntity
  8
0
  6
ByLayer
 62
  256
370
   -1
100
AcDbPolyline
 90
    3
 70
    0
 43
0
 10
265
 20
440
 10
270
 20
440
 10
270
 20
445
  0
LWPOLYLINE
  5
165
100
AcDbEntity
  8
0
  6
ByLayer
 62
  256
370
   -1
100
AcDbPolyline
 90
    4
 70
    0
 43
0
 10
275
 20
440
 10
285
 20
440
 10
280
 20
440
 10
280
 20
445
  0
LWPOLYLINE
  5
166
100
AcDbEntity
  8
0
  6
ByLayer
 62
  256
370
   -1
100
AcDbPolyline
 90
    2
 70
    0
 43
0
 10
280
 20
437
 10
280
 20
433
  0
LWPOLYLINE
  5
167
100
AcDbEntity
  8
0
  6
ByLayer
 62
  256
370
   -1
100
AcDbPolyline
 90
    2
 70
    0
 43
0
 10
270
 20
437
 10
270
 20
433
  0
LWPOLYLINE
  5
168
100
AcDbEntity
  8
0
  6
ByLayer
 62
  256
370
   -1
100
AcDbPolyline
 90
    3
 70
    0
 43
0
 10
265
 20
430
 10
270
 20
430
 10
270
 20
425
  0
LWPOLYLINE
  5
169
100
AcDbEntity
  8
0
  6
ByLayer
 62
  256
370
   -1
100
AcDbPolyline
 90
    4
 70
    0
 43
0
 10
275
 20
430
 10
285
 20
430
 10
280
 20
430
 10
280
 20
425
  0
LWPOLYLINE
  5
16A
100
AcDbEntity
  8
0
  6
ByLayer
 62
  256
370
   -1
100
AcDbPolyline
 90
    3
 70
    0
 43
0
 10
290
 20
425
 10
290
 20
430
 10
295
 20
430
  0
LWPOLYLINE
  5
16B
100
AcDbEntity
  8
0
  6
ByLayer
 62
  256
370
   -1
100
AcDbPolyline
 90
    3
 70
    0
 43
0
 10
295
 20
440
 10
290
 20
440
 10
290
 20
445
  0
LWPOLYLINE
  5
16C
100
AcDbEntity
  8
0
  6
ByLayer
 62
  256
370
   -1
100
AcDbPolyline
 90
    2
 70
    0
 43
0
 10
290
 20
437
 10
290
 20
433
  0
LWPOLYLINE
  5
16D
100
AcDbEntity
  8
0
  6
ByLayer
 62
  256
370
   -1
100
AcDbPolyline
 90
    9
 70
    0
 43
0
 10
360
 20
400
 10
340
 20
400
 10
340
 20
390
 10
300
 20
390
 10
300
 20
420
 10
340
 20
420
 10
340
 20
410
 10
360
 20
410
 10
360
 20
400
  0
LWPOLYLINE
  5
16E
100
AcDbEntity
  8
0
  6
ByLayer
 62
  256
370
   -1
100
AcDbPolyline
 90
    3
 70
    0
 43
0
 10
335
 20
400
 10
330
 20
400
 10
330
 20
395
  0
LWPOLYLINE
  5
16F
100
AcDbEntity
  8
0
  6
ByLayer
 62
  256
370
   -1
100
AcDbPolyline
 90
    4
 70
    0
 43
0
 10
325
 20
400
 10
315
 20
400
 10
320
 20
400
 10
320
 20
395
  0
LWPOLYLINE
  5
170
100
AcDbEntity
  8
0
  6
ByLayer
 62
  256
370
   -1
100
AcDbPolyline
 90
    2
 70
    0
 43
0
 10
320
 20
403
 10
320
 20
407
  0
LWPOLYLINE
  5
171
100
AcDbEntity
  8
0
  6
ByLayer
 62
  256
370
   -1
100
AcDbPolyline
 90
    2
 70
    0
 43
0
 10
330
 20
403
 10
330
 20
407
  0
LWPOLYLINE
  5
172
100
AcDbEntity
  8
0
  6
ByLayer
 62
  256
370
   -1
100
AcDbPolyline
 90
    3
 70
    0
 43
0
 10
335
 20
410
 10
330
 20
410
 10
330
 20
415
  0
LWPOLYLINE
  5
173
100
AcDbEntity
  8
0
  6
ByLayer
 62
  256
370
   -1
100
AcDbPolyline
 90
    4
 70
    0
 43
0
 10
325
 20
410
 10
315
 20
410
 10
320
 20
410
 10
320
 20
415
  0
LWPOLYLINE
  5
174
100
AcDbEntity
  8
0
  6
ByLayer
 62
  256
370
   -1
100
AcDbPolyline
 90
    3
 70
    0
 43
0
 10
310
 20
415
 10
310
 20
410
 10
305
 20
410
  0
LWPOLYLINE
  5
175
100
AcDbEntity
  8
0
  6
ByLayer
 62
  256
370
   -1
100
AcDbPolyline
 90
    3
 70
    0
 43
0
 10
305
 20
400
 10
310
 20
400
 10
310
 20
395
  0
LWPOLYLINE
  5
176
100
AcDbEntity
  8
0
  6
ByLayer
 62
  256
370
   -1
100
AcDbPolyline
 90
    2
 70
    0
 43
0
 10
310
 20
403
 10
310
 20
407
  0
LWPOLYLINE
  5
177
100
AcDbEntity
  8
0
  6
ByLayer
 62
  256
370
   -1
100
AcDbPolyline
 90
    9
 70
    0
 43
0
 10
240
 20
410
 10
260
 20
410
 10
260
 20
420
 10
300
 20
420
 10
300
 20
390
 10
260
 20
390
 10
260
 20
400
 10
240
 20
400
 10
240
 20
410
  0
LWPOLYLINE
  5
178
100
AcDbEntity
  8
0
  6
ByLayer
 62
  256
370
   -1
100
AcDbPolyline
 90
    3
 70
    0
 43
0
 10
265
 20
410
 10
270
 20
410
 10
270
 20
415
  0
LWPOLYLINE
  5
179
100
AcDbEntity
  8
0
  6
ByLayer
 62
  256
370
   -1
100
AcDbPolyline
 90
    4
 70
    0
 43
0
 10
275
 20
410
 10
285
 20
410
 10
280
 20
410
 10
280
 20
415
  0
LWPOLYLINE
  5
17A
100
AcDbEntity
  8
0
  6
ByLayer
 62
  256
370
   -1
100
AcDbPolyline
 90
    2
 70
    0
 43
0
 10
280
 20
407
 10
280
 20
403
  0
LWPOLYLINE
  5
17B
100
AcDbEntity
  8
0
  6
ByLayer
 62
  256
370
   -1
100
AcDbPolyline
 90
    2
 70
    0
 43
0
 10
270
 20
407
 10
270
 20
403
  0
LWPOLYLINE
  5
17C
100
AcDbEntity
  8
0
  6
ByLayer
 62
  256
370
   -1
100
AcDbPolyline
 90
    3
 70
    0
 43
0
 10
265
 20
400
 10
270
 20
400
 10
270
 20
395
  0
LWPOLYLINE
  5
17D
100
AcDbEntity
  8
0
  6
ByLayer
 62
  256
370
   -1
100
AcDbPolyline
 90
    4
 70
    0
 43
0
 10
275
 20
400
 10
285
 20
400
 10
280
 20
400
 10
280
 20
395
  0
LWPOLYLINE
  5
17E
100
AcDbEntity
  8
0
  6
ByLayer
 62
  256
370
   -1
100
AcDbPolyline
 90
    3
 70
    0
 43
0
 10
290
 20
395
 10
290
 20
400
 10
295
 20
400
  0
LWPOLYLINE
  5
17F
100
AcDbEntity
  8
0
  6
ByLayer
 62
  256
370
   -1
100
AcDbPolyline
 90
    3
 70
    0
 43
0
 10
295
 20
410
 10
290
 20
410
 10
290
 20
415
  0
LWPOLYLINE
  5
180
100
AcDbEntity
  8
0
  6
ByLayer
 62
  256
370
   -1
100
AcDbPolyline
 90
    2
 70
    0
 43
0
 10
290
 20
407
 10
290
 20
403
  0
ENDSEC
  0
SECTION
  2
OBJECTS
  0
DICTIONARY
  5
C
330
0
100
AcDbDictionary
281
    1
  3
ACAD_GROUP
350
D
  0
DICTIONARY
  5
D
330
C
100
AcDbDictionary
281
    1
  0
ENDSEC
  0
EOF
